<svg xmlns="http://www.w3.org/2000/svg" viewBox="0 0 1372.2 158.23"><defs><style>.cls-1,.cls-2{fill:#9f724b;}.cls-2{stroke:#9f724b;stroke-miterlimit:10;}</style></defs><title>Fichier 6</title><g id="Calque_2" data-name="Calque 2"><g id="Calque_3" data-name="Calque 3"><path class="cls-1" d="M864.83,131.59a3,3,0,0,1,.94,3.2c-.13.35.36-.1-.11.11a4.36,4.36,0,0,1-.87.26,5.18,5.18,0,0,1-1.8,0,6.38,6.38,0,0,1-5.06-4.21,7.29,7.29,0,0,1,2-7,8.63,8.63,0,0,1,7.52-2.43c6.33.91,10.07,6.7,11.12,12.57.15.83.23,1.67.39,2.5.06.31.12.77.08.48,0,.4.09.8.11,1.21a10.57,10.57,0,0,1-7.93,11.31,26.15,26.15,0,0,1-14.38.48,22.48,22.48,0,0,1-10.4-6.32c-6.41-6.67-9.72-16-12-24.75a111,111,0,0,1-3.73-22.86,116.46,116.46,0,0,1,7.69-47.06C845,32.33,857,16.36,873.8,8.84a22.46,22.46,0,0,1,6.11-2c.23,0,1.37-.13.53,0l.44-.06c.67-.06,1.35-.11,2-.14,4.65-.2,9.72.28,13.66,3a78.92,78.92,0,0,1,21.9,23.16c9.8,15.55,14.73,34,15.62,52.27a101.15,101.15,0,0,1-1,20.41c-1.49,9.48-3.6,19.13-7.76,27.83-3.66,7.64-9.32,15-18,17a26.27,26.27,0,0,1-14.09-.7,11.2,11.2,0,0,1-6.66-5.55,11.47,11.47,0,0,1-1-5.9c0-.36.06-.72.1-1.08-.06.51.06-.31.1-.5.19-1,.29-2.12.52-3.17,1.25-5.78,5.34-11.45,11.7-11.86a8.46,8.46,0,0,1,7.25,3,7,7,0,0,1,1.39,7,6.51,6.51,0,0,1-5,3.72,5.1,5.1,0,0,1-1.7-.05,3.65,3.65,0,0,1-.87-.26c-.4-.2-.14-.06-.06,0-.71-1.06.09-2.65.88-3.36,1.44-1.29-.68-3.4-2.12-2.12a5.88,5.88,0,0,0-1.91,3.72c-.16,1.35.08,3.37,1.36,4.13a8.28,8.28,0,0,0,7.67,0c5.58-2.69,6.51-9.58,2.92-14.3-4-5.32-11.51-5.63-16.87-2.13a17.1,17.1,0,0,0-6.22,7.59,29.8,29.8,0,0,0-1.78,7c-.77,4.5-.33,9,2.72,12.69,2.68,3.21,6.87,4.75,10.9,5.35a28.3,28.3,0,0,0,15.58-1.65c9.19-4,14.58-13.41,18-22.38a114.65,114.65,0,0,0,6.54-28.86,108.6,108.6,0,0,0-.35-23.84,116.91,116.91,0,0,0-7.19-29.25A92.41,92.41,0,0,0,911.86,19.1,82,82,0,0,0,898.38,7.2C894,4.1,888.27,3.4,883,3.61c-.71,0-1.42.07-2.13.14s-.82,0-1.62.17a26.61,26.61,0,0,0-7,2.33,58.84,58.84,0,0,0-12,7.41A75.3,75.3,0,0,0,840.5,37.54a105.23,105.23,0,0,0-10,27.82A126,126,0,0,0,827.64,91a109.8,109.8,0,0,0,2.7,23.54c2.15,10.09,5.36,20.57,11.81,28.8A27.57,27.57,0,0,0,853,152a28.33,28.33,0,0,0,15.63,1.39c4-.65,8-2.28,10.59-5.48a13.83,13.83,0,0,0,2.93-7.94,20,20,0,0,0-.39-4.57,28.72,28.72,0,0,0-2-7.47,16.58,16.58,0,0,0-6.46-7.35c-5.54-3.3-12.83-2.62-16.69,2.84-3.45,4.89-2,11.66,3.65,14.08,2.21.95,5.3,1.24,7.39-.23,1.15-.81,1.37-2.75,1.21-4.05a5.87,5.87,0,0,0-1.9-3.72c-1.44-1.28-3.57.83-2.13,2.12Z"/><path class="cls-2" d="M881,17.93a7.82,7.82,0,0,1,6.27.34c4.31,2.3,7.66,8.5,4.39,20.49-1.56,5.72-7.19,56.06-7.19,56.06h-1.44l-.62-4.37c-1.4-12.37-5.41-47-6.69-51.69-3.31-12.13.15-18.34,4.54-20.57Z"/><path class="cls-2" d="M780.56,17.93a7.8,7.8,0,0,1,6.26.34c4.32,2.3,7.66,8.5,4.39,20.49C789.65,44.48,784,94.82,784,94.82h-1.43L782,90.45c-1.41-12.37-5.42-47-6.69-51.69-3.31-12.13.15-18.34,4.54-20.57Z"/><path class="cls-2" d="M878.89,95.91s-5.94-41.59-16.33-52c0,0-5.95-7.43-11.89,1.48s7.43,17.82,7.43,17.82A52.83,52.83,0,0,1,878.89,95.91Z"/><path class="cls-2" d="M889.25,95.91s5.94-41.59,16.34-52c0,0,5.94-7.43,11.88,1.48S910,63.23,910,63.23A52.88,52.88,0,0,0,889.25,95.91Z"/><path class="cls-2" d="M874.44,101.85s-13.37-28.22-25.25-31.19c0,0-8.91-3-8.91,5.94S873,103.33,873,103.33Z"/><path class="cls-2" d="M892.26,101.85s13.36-28.22,25.25-31.19c0,0,8.91-3,8.91,5.94s-32.68,26.73-32.68,26.73Z"/><path class="cls-2" d="M870,106.3S857.71,94,842.3,102.16a8.63,8.63,0,0,0-4.23,4.74c-.87,2.52-.54,5.86,5.18,8.32C853.64,119.67,870,106.3,870,106.3Z"/><path class="cls-2" d="M895.63,106.3s12.28-12.27,27.68-4.14a8.63,8.63,0,0,1,4.23,4.74c.87,2.52.54,5.86-5.18,8.32C912,119.67,895.63,106.3,895.63,106.3Z"/><path class="cls-1" d="M793.78,144.84a5.65,5.65,0,0,0,5.35-6.05c-.24-3.25-3.43-5.49-6.53-5.46-3.44,0-6.21,2.74-7.2,5.88a10.67,10.67,0,0,0,2.05,9.52c4.9,6.38,13.69,6.32,20.78,4.38,7.66-2.09,14.49-6.38,20.73-11.19,6.75-5.22,12.89-11.21,19.86-16.14,4.62-3.27,9.74-5.79,15.42-6.41a14.36,14.36,0,0,1,4.85.14,2,2,0,0,0,2.39-.73,32.46,32.46,0,0,0,2.06-3.69c1.12-2.07,2.28-4.11,3.59-6.06a18.49,18.49,0,0,1,4.22-4.85,4.33,4.33,0,0,1,1.83-.83A2.7,2.7,0,0,1,885,104a15.85,15.85,0,0,1,4.08,4.47,65.53,65.53,0,0,1,5.78,10.68c.05.09.08.19.12.28s-.19-.21,0,0,.07.16.08.2l2.51-1.46.23.3-1.3,2.25a66.44,66.44,0,0,1,7.17.85,29.86,29.86,0,0,1,11.35,4.8c8.72,5.74,16,13.42,24.49,19.49,7.59,5.42,17,10.47,26.67,10,4.5-.22,8.86-1.91,11.66-5.56,2.55-3.32,3.4-8,1.06-11.68-2.45-3.86-8.07-5.19-11.34-1.48-3,3.4-.69,9.2,4,9.27,1.93,0,1.93-3,0-3a2.61,2.61,0,0,1-2.37-2.73,3.25,3.25,0,0,1,3-2.74c3.7-.52,5.69,3.9,5,7a10.23,10.23,0,0,1-7.39,7.37c-4,1.16-8.35.53-12.31-.6-8.3-2.36-15.53-7.42-22.15-12.81-6.85-5.6-13.31-12-21-16.47a30.48,30.48,0,0,0-10.79-3.89c-2.32-.36-4.66-.64-7-.79a1.52,1.52,0,0,0-1.3,2.26l.25.32a1.51,1.51,0,0,0,2.5-1.46,11.79,11.79,0,0,0-1.06-2.45c-.78-1.7-1.63-3.37-2.53-5-2-3.57-4.35-7.74-7.91-10s-7,.08-9.33,2.86a60.51,60.51,0,0,0-6.93,10.94c-.3.56-.59,1.12-.92,1.66l-.18.3c-.16.26,0-.06.06-.07-.35,0,1-.24,1-.36a5,5,0,0,0-1.18-.22,23.24,23.24,0,0,0-8.78.66,40.2,40.2,0,0,0-14.55,7.39c-12.16,9.15-22.94,21.6-38.11,25.74-6.38,1.74-15.11,2-18.58-4.86-1.37-2.69-1.14-6.32,1.45-8.21a3.93,3.93,0,0,1,4-.48,2.85,2.85,0,0,1,1.88,2.81,2.6,2.6,0,0,1-2.36,2.36c-1.92,0-1.93,3,0,3Z"/><path class="cls-1" d="M667.83,131a3,3,0,0,1,.94,3.2c-.13.34.36-.1-.11.11a4.36,4.36,0,0,1-.87.26,5.18,5.18,0,0,1-1.8,0,6.37,6.37,0,0,1-5.06-4.22,7.28,7.28,0,0,1,2-7,8.6,8.6,0,0,1,7.52-2.43c6.33.9,10.07,6.7,11.12,12.57.15.83.23,1.67.39,2.5.06.31.12.77.08.48,0,.4.09.8.11,1.21a10.57,10.57,0,0,1-7.93,11.31,26.24,26.24,0,0,1-14.38.48,22.5,22.5,0,0,1-10.4-6.33c-6.41-6.66-9.72-16-12-24.75a110.94,110.94,0,0,1-3.73-22.85,116.46,116.46,0,0,1,7.69-47.06C648,31.75,660,15.79,676.8,8.27a22.48,22.48,0,0,1,6.11-2c.23,0,1.37-.12.53,0l.44-.05c.67-.06,1.35-.11,2-.14,4.65-.2,9.72.28,13.66,3a79,79,0,0,1,21.9,23.15c9.8,15.56,14.73,34,15.62,52.28a101.15,101.15,0,0,1-1,20.41c-1.49,9.48-3.6,19.13-7.76,27.82-3.66,7.65-9.32,15-18,17a26.17,26.17,0,0,1-14.09-.7,11.13,11.13,0,0,1-6.66-5.55,11.41,11.41,0,0,1-1-5.89c0-.36.06-.72.1-1.08-.06.51.06-.32.1-.5.19-1.06.29-2.12.52-3.17,1.25-5.78,5.34-11.46,11.7-11.86a8.48,8.48,0,0,1,7.25,3,7,7,0,0,1,1.39,7,6.5,6.5,0,0,1-5,3.73,5.38,5.38,0,0,1-1.7,0,3.65,3.65,0,0,1-.87-.26c-.4-.2-.14-.07-.06,0-.71-1.05.09-2.64.88-3.35,1.44-1.29-.68-3.41-2.12-2.12a5.88,5.88,0,0,0-1.91,3.72c-.16,1.35.08,3.36,1.36,4.12a8.25,8.25,0,0,0,7.67,0c5.58-2.69,6.51-9.59,2.92-14.31-4-5.31-11.51-5.62-16.87-2.12a17.1,17.1,0,0,0-6.22,7.59,29.8,29.8,0,0,0-1.78,7c-.77,4.5-.33,9,2.72,12.69,2.68,3.21,6.87,4.74,10.9,5.34a28.21,28.21,0,0,0,15.58-1.64c9.19-4,14.58-13.41,18-22.38A114.65,114.65,0,0,0,739.74,100a108.6,108.6,0,0,0-.35-23.84,117.09,117.09,0,0,0-7.19-29.26,92.65,92.65,0,0,0-17.34-28.36A82.43,82.43,0,0,0,701.38,6.63C697,3.53,691.27,2.83,686,3q-1.07,0-2.13.15c-.83.09-.82,0-1.62.16a26.63,26.63,0,0,0-7,2.34,58.84,58.84,0,0,0-12,7.41A75.3,75.3,0,0,0,643.5,37a105,105,0,0,0-10,27.82,125.93,125.93,0,0,0-2.84,25.67,109.81,109.81,0,0,0,2.7,23.55c2.15,10.09,5.36,20.57,11.81,28.8A27.57,27.57,0,0,0,656,151.4a28.42,28.42,0,0,0,15.63,1.39c4-.66,8-2.28,10.59-5.48a13.84,13.84,0,0,0,2.93-7.95,20.08,20.08,0,0,0-.39-4.57,28.76,28.76,0,0,0-2-7.46A16.66,16.66,0,0,0,676.3,120c-5.54-3.29-12.83-2.61-16.69,2.85-3.45,4.88-2,11.66,3.65,14.08,2.21.95,5.3,1.23,7.39-.23,1.15-.82,1.37-2.75,1.21-4a5.87,5.87,0,0,0-1.9-3.72c-1.44-1.29-3.57.83-2.13,2.12Z"/><path class="cls-2" d="M684,17.35a7.78,7.78,0,0,1,6.27.35c4.31,2.3,7.66,8.5,4.39,20.49-1.56,5.72-7.19,56.06-7.19,56.06h-1.44l-.62-4.38c-1.4-12.36-5.41-47-6.69-51.68-3.31-12.13.15-18.34,4.54-20.57Z"/><path class="cls-2" d="M681.89,95.34s-5.94-41.59-16.33-52c0,0-5.95-7.43-11.89,1.48s7.43,17.82,7.43,17.82A52.83,52.83,0,0,1,681.89,95.34Z"/><path class="cls-2" d="M692.25,95.34s5.94-41.59,16.34-52c0,0,5.94-7.43,11.88,1.48S713,62.66,713,62.66A52.88,52.88,0,0,0,692.25,95.34Z"/><path class="cls-2" d="M677.44,101.28s-13.37-28.22-25.25-31.19c0,0-8.91-3-8.91,5.94S676,102.76,676,102.76Z"/><path class="cls-2" d="M695.26,101.28s13.36-28.22,25.25-31.19c0,0,8.91-3,8.91,5.94s-32.68,26.73-32.68,26.73Z"/><path class="cls-2" d="M673,105.73s-12.27-12.27-27.68-4.15a8.68,8.68,0,0,0-4.23,4.75c-.87,2.51-.54,5.86,5.18,8.31C656.64,119.1,673,105.73,673,105.73Z"/><path class="cls-2" d="M698.63,105.73s12.28-12.27,27.68-4.15a8.68,8.68,0,0,1,4.23,4.75c.87,2.51.54,5.86-5.18,8.31C715,119.1,698.63,105.73,698.63,105.73Z"/><path class="cls-1" d="M596.78,144.26a5.64,5.64,0,0,0,5.35-6c-.24-3.25-3.43-5.49-6.53-5.46-3.44,0-6.21,2.73-7.2,5.88a10.67,10.67,0,0,0,2.05,9.52c4.9,6.38,13.69,6.32,20.78,4.38,7.66-2.1,14.49-6.38,20.73-11.2,6.75-5.21,12.89-11.21,19.86-16.14,4.62-3.27,9.74-5.78,15.42-6.41a14.9,14.9,0,0,1,4.85.14,2,2,0,0,0,2.39-.73,31.63,31.63,0,0,0,2.06-3.69c1.12-2.06,2.28-4.1,3.59-6.05a18.34,18.34,0,0,1,4.22-4.85,4.21,4.21,0,0,1,1.83-.83,2.7,2.7,0,0,1,1.77.61,15.85,15.85,0,0,1,4.08,4.47,65.53,65.53,0,0,1,5.78,10.68,2.36,2.36,0,0,1,.12.28s-.19-.21,0,0a.44.44,0,0,1,.08.2l2.51-1.46.23.29-1.3,2.26a64,64,0,0,1,7.17.84A29.88,29.88,0,0,1,718,125.71c8.72,5.74,16,13.42,24.49,19.49,7.59,5.42,17,10.46,26.67,10,4.5-.22,8.86-1.91,11.66-5.56,2.55-3.32,3.4-8,1.06-11.68-2.45-3.86-8.07-5.19-11.34-1.48-3,3.39-.69,9.2,4,9.27,1.93,0,1.93-3,0-3a2.61,2.61,0,0,1-2.37-2.74c.07-1.51,1.57-2.54,3-2.74,3.7-.51,5.69,3.91,5,7a10.21,10.21,0,0,1-7.39,7.37c-4,1.17-8.35.54-12.31-.59-8.3-2.37-15.53-7.42-22.15-12.81-6.85-5.6-13.31-12-21-16.48a30.46,30.46,0,0,0-10.79-3.88c-2.32-.37-4.66-.64-7-.79a1.52,1.52,0,0,0-1.3,2.26,3.76,3.76,0,0,0,.25.31,1.51,1.51,0,0,0,2.5-1.46,11.94,11.94,0,0,0-1.06-2.44c-.78-1.7-1.63-3.37-2.53-5-2-3.58-4.35-7.75-7.91-10s-7,.07-9.33,2.86a60.17,60.17,0,0,0-6.93,10.94c-.3.55-.59,1.12-.92,1.66l-.18.29c-.16.26,0,0,.06-.07-.35.06,1-.23,1-.35a4.51,4.51,0,0,0-1.18-.22,23,23,0,0,0-8.78.66,40,40,0,0,0-14.55,7.39c-12.16,9.15-22.94,21.6-38.11,25.74-6.38,1.74-15.11,2-18.58-4.87-1.37-2.68-1.14-6.31,1.45-8.21a3.93,3.93,0,0,1,4-.47,2.85,2.85,0,0,1,1.88,2.81,2.59,2.59,0,0,1-2.36,2.35c-1.92,0-1.93,3,0,3Z"/><path class="cls-2" d="M764.64,144a1.58,1.58,0,0,1-2.06,1.53c-3.86-1.24-10.9-5-10.9-15.76,0-11.13,5.85-16.43,8.78-18.37a16.06,16.06,0,0,0,4.9-5c2.24-3.72,4.08-9.71-.31-16.74,0,0-5.94-8.92-8.91-8.92v-3s19.31,1.49,22.28,16.34,1.48,17.82,1.48,17.82-14.68,8-13.68,21.5a11.85,11.85,0,0,1-.45,4.47A21.27,21.27,0,0,0,764.64,144Z"/><path class="cls-2" d="M804.08,144a1.57,1.57,0,0,0,2,1.53c3.86-1.24,10.9-5,10.9-15.76,0-11.13-5.85-16.43-8.77-18.37a16,16,0,0,1-4.9-5c-2.24-3.72-4.09-9.71.3-16.74,0,0,5.94-8.92,8.92-8.92v-3s-19.31,1.49-22.28,16.34-1.49,17.82-1.49,17.82,14.69,8,13.68,21.5a11.85,11.85,0,0,0,.46,4.47A22,22,0,0,1,804.08,144Z"/><path class="cls-2" d="M784.36,126.75c3,0,4.45,4.46,4.45,4.46h7.43s-4.46-19.31-13.37-16.34-10.39,16.34-10.39,16.34h7.42S781.39,126.75,784.36,126.75Z"/><path class="cls-2" d="M584.56,16.93a7.8,7.8,0,0,1,6.26.34c4.32,2.3,7.66,8.5,4.39,20.49C593.65,43.48,588,93.82,588,93.82h-1.43L586,89.45c-1.41-12.37-5.42-47-6.69-51.69-3.31-12.13.15-18.34,4.54-20.57Z"/><path class="cls-1" d="M471.83,130a3,3,0,0,1,.94,3.2c-.13.34.36-.1-.11.11a4.36,4.36,0,0,1-.87.26,5.18,5.18,0,0,1-1.8,0,6.37,6.37,0,0,1-5.06-4.22,7.28,7.28,0,0,1,2-7,8.6,8.6,0,0,1,7.52-2.43c6.33.9,10.07,6.7,11.12,12.57.15.83.23,1.67.39,2.5.06.31.12.77.08.48.05.4.09.8.11,1.21a10.57,10.57,0,0,1-7.93,11.31,26.24,26.24,0,0,1-14.38.48,22.5,22.5,0,0,1-10.4-6.33c-6.41-6.66-9.72-16-12-24.75a110.94,110.94,0,0,1-3.73-22.85,116.46,116.46,0,0,1,7.69-47.06C452,30.75,464,14.79,480.8,7.27a22.48,22.48,0,0,1,6.11-2c.23,0,1.37-.12.53,0l.44-.05c.67-.06,1.35-.11,2-.14,4.65-.2,9.72.28,13.66,3a79,79,0,0,1,21.9,23.15c9.8,15.56,14.73,34,15.62,52.28a101.15,101.15,0,0,1-1,20.41c-1.49,9.48-3.6,19.13-7.76,27.82-3.66,7.65-9.32,15-18,17a26.17,26.17,0,0,1-14.09-.7,11.13,11.13,0,0,1-6.66-5.55,11.41,11.41,0,0,1-1-5.89c0-.36.06-.72.1-1.08-.06.51.06-.32.1-.5.19-1.06.29-2.12.52-3.17,1.25-5.78,5.34-11.46,11.7-11.86a8.48,8.48,0,0,1,7.25,3,7,7,0,0,1,1.39,7,6.5,6.5,0,0,1-5,3.73,5.38,5.38,0,0,1-1.7,0,3.65,3.65,0,0,1-.87-.26c-.4-.2-.14-.07-.06,0-.71-1.05.09-2.64.88-3.35,1.44-1.29-.68-3.41-2.12-2.12a5.88,5.88,0,0,0-1.91,3.72c-.16,1.35.08,3.36,1.36,4.12a8.25,8.25,0,0,0,7.67,0c5.58-2.69,6.51-9.59,2.92-14.31-4.05-5.31-11.51-5.62-16.87-2.12a17.1,17.1,0,0,0-6.22,7.59,29.8,29.8,0,0,0-1.78,7c-.77,4.5-.33,9,2.72,12.69,2.68,3.21,6.87,4.74,10.9,5.34a28.21,28.21,0,0,0,15.58-1.64c9.19-4,14.58-13.41,18-22.38A114.65,114.65,0,0,0,543.74,99a108.6,108.6,0,0,0-.35-23.84,117.09,117.09,0,0,0-7.19-29.26,92.65,92.65,0,0,0-17.34-28.36A82.43,82.43,0,0,0,505.38,5.63C501,2.53,495.27,1.83,490,2q-1.06,0-2.13.15c-.83.09-.82,0-1.62.16a26.63,26.63,0,0,0-7,2.34,58.84,58.84,0,0,0-12,7.41A75.3,75.3,0,0,0,447.5,36a105,105,0,0,0-10,27.82,125.93,125.93,0,0,0-2.84,25.67,109.81,109.81,0,0,0,2.7,23.55c2.15,10.09,5.36,20.57,11.81,28.8A27.57,27.57,0,0,0,460,150.4a28.42,28.42,0,0,0,15.63,1.39c4-.66,8-2.28,10.59-5.48a13.84,13.84,0,0,0,2.93-7.95,20.08,20.08,0,0,0-.39-4.57,28.76,28.76,0,0,0-2-7.46A16.66,16.66,0,0,0,480.3,119c-5.54-3.29-12.83-2.61-16.69,2.85-3.45,4.88-2,11.66,3.65,14.08,2.21.95,5.3,1.23,7.39-.23,1.15-.82,1.37-2.75,1.21-4a5.87,5.87,0,0,0-1.9-3.72c-1.44-1.29-3.57.83-2.13,2.12Z"/><path class="cls-2" d="M488,16.35a7.78,7.78,0,0,1,6.27.35c4.31,2.3,7.66,8.5,4.39,20.49-1.56,5.72-7.19,56.06-7.19,56.06h-1.44l-.62-4.38c-1.4-12.36-5.41-47-6.69-51.68-3.31-12.13.15-18.34,4.54-20.57Z"/><path class="cls-2" d="M485.89,94.34s-5.94-41.59-16.33-52c0,0-5.95-7.43-11.89,1.48s7.43,17.82,7.43,17.82A52.83,52.83,0,0,1,485.89,94.34Z"/><path class="cls-2" d="M496.25,94.34s5.94-41.59,16.34-52c0,0,5.94-7.43,11.88,1.48S517,61.66,517,61.66A52.88,52.88,0,0,0,496.25,94.34Z"/><path class="cls-2" d="M481.44,100.28s-13.37-28.22-25.25-31.19c0,0-8.91-3-8.91,5.94S480,101.76,480,101.76Z"/><path class="cls-2" d="M499.26,100.28s13.36-28.22,25.25-31.19c0,0,8.91-3,8.91,5.94s-32.68,26.73-32.68,26.73Z"/><path class="cls-2" d="M477,104.73s-12.27-12.27-27.68-4.15a8.68,8.68,0,0,0-4.23,4.75c-.87,2.51-.54,5.86,5.18,8.31C460.64,118.1,477,104.73,477,104.73Z"/><path class="cls-2" d="M502.63,104.73s12.28-12.27,27.68-4.15a8.68,8.68,0,0,1,4.23,4.75c.87,2.51.54,5.86-5.18,8.31C519,118.1,502.63,104.73,502.63,104.73Z"/><path class="cls-1" d="M400.78,143.26a5.64,5.64,0,0,0,5.35-6c-.24-3.25-3.43-5.49-6.53-5.46-3.44,0-6.21,2.73-7.2,5.88a10.67,10.67,0,0,0,2.05,9.52c4.9,6.38,13.69,6.32,20.78,4.38,7.66-2.1,14.49-6.38,20.73-11.2,6.75-5.21,12.89-11.21,19.86-16.14,4.62-3.27,9.74-5.78,15.42-6.41a14.9,14.9,0,0,1,4.85.14,2,2,0,0,0,2.39-.73,31.63,31.63,0,0,0,2.06-3.69c1.12-2.06,2.28-4.1,3.59-6.05a18.34,18.34,0,0,1,4.22-4.85,4.21,4.21,0,0,1,1.83-.83,2.7,2.7,0,0,1,1.77.61,15.85,15.85,0,0,1,4.08,4.47,65.53,65.53,0,0,1,5.78,10.68,2.36,2.36,0,0,1,.12.28s-.19-.21,0,0a.44.44,0,0,1,.08.2l2.51-1.46.23.29-1.3,2.26a64,64,0,0,1,7.17.84A29.88,29.88,0,0,1,522,124.71c8.72,5.74,16,13.42,24.49,19.49,7.59,5.42,17,10.46,26.67,10,4.5-.22,8.86-1.91,11.66-5.56,2.55-3.32,3.4-8,1.06-11.68-2.45-3.86-8.07-5.19-11.34-1.48-3,3.39-.69,9.2,4,9.27,1.93,0,1.93-3,0-3a2.61,2.61,0,0,1-2.37-2.74c.07-1.51,1.57-2.54,3-2.74,3.7-.51,5.69,3.91,5,7a10.21,10.21,0,0,1-7.39,7.37c-4,1.17-8.35.54-12.31-.59-8.3-2.37-15.53-7.42-22.15-12.81-6.85-5.6-13.31-12-21-16.48a30.46,30.46,0,0,0-10.79-3.88c-2.32-.37-4.66-.64-7-.79a1.52,1.52,0,0,0-1.3,2.26,3.76,3.76,0,0,0,.25.31,1.51,1.51,0,0,0,2.5-1.46,11.94,11.94,0,0,0-1.06-2.44c-.78-1.7-1.63-3.37-2.53-5-2-3.58-4.35-7.75-7.91-10s-6.95.07-9.33,2.86a60.17,60.17,0,0,0-6.93,10.94c-.3.55-.59,1.12-.92,1.66l-.18.29c-.16.26,0,0,.06-.07-.35.06,1-.23,1-.35a4.51,4.51,0,0,0-1.18-.22,23,23,0,0,0-8.78.66,40,40,0,0,0-14.55,7.39c-12.16,9.15-22.94,21.6-38.11,25.74-6.38,1.74-15.11,2-18.58-4.87-1.37-2.68-1.14-6.31,1.45-8.21a3.93,3.93,0,0,1,4-.47,2.85,2.85,0,0,1,1.88,2.81,2.59,2.59,0,0,1-2.36,2.35c-1.92,0-1.93,3,0,3Z"/><path class="cls-2" d="M568.64,143a1.58,1.58,0,0,1-2.06,1.53c-3.86-1.24-10.9-5-10.9-15.76,0-11.13,5.85-16.43,8.78-18.37a16.06,16.06,0,0,0,4.9-5c2.24-3.72,4.08-9.71-.31-16.74,0,0-5.94-8.92-8.91-8.92v-3s19.31,1.49,22.28,16.34,1.48,17.82,1.48,17.82-14.68,8-13.68,21.5a11.85,11.85,0,0,1-.45,4.47A21.27,21.27,0,0,0,568.64,143Z"/><path class="cls-2" d="M608.08,143a1.57,1.57,0,0,0,2,1.53c3.86-1.24,10.9-5,10.9-15.76,0-11.13-5.85-16.43-8.77-18.37a16,16,0,0,1-4.9-5c-2.24-3.72-4.09-9.71.3-16.74,0,0,5.94-8.92,8.92-8.92v-3s-19.31,1.49-22.28,16.34-1.49,17.82-1.49,17.82,14.69,8,13.68,21.5a11.85,11.85,0,0,0,.46,4.47A22,22,0,0,1,608.08,143Z"/><path class="cls-2" d="M588.36,125.75c3,0,4.45,4.46,4.45,4.46h7.43s-4.46-19.31-13.37-16.34-10.39,16.34-10.39,16.34h7.42S585.39,125.75,588.36,125.75Z"/><path class="cls-2" d="M388.56,15.93a7.8,7.8,0,0,1,6.26.34c4.32,2.3,7.66,8.5,4.39,20.49C397.65,42.48,392,92.82,392,92.82h-1.43L390,88.45c-1.41-12.37-5.42-47-6.69-51.69-3.31-12.13.15-18.34,4.54-20.57Z"/><path class="cls-1" d="M275.83,129a3,3,0,0,1,.94,3.2c-.13.34.36-.1-.11.11a4.36,4.36,0,0,1-.87.26,5.18,5.18,0,0,1-1.8,0,6.37,6.37,0,0,1-5.06-4.22,7.28,7.28,0,0,1,2-7,8.6,8.6,0,0,1,7.52-2.43c6.33.9,10.07,6.7,11.12,12.57.15.83.23,1.67.39,2.5.06.31.12.77.08.48.05.4.09.8.11,1.21a10.57,10.57,0,0,1-7.93,11.31,26.24,26.24,0,0,1-14.38.48,22.5,22.5,0,0,1-10.4-6.33c-6.41-6.66-9.72-16-12-24.75a110.94,110.94,0,0,1-3.73-22.85,116.46,116.46,0,0,1,7.69-47.06C256,29.75,268,13.79,284.8,6.27a22.48,22.48,0,0,1,6.11-2c.23,0,1.37-.12.53,0l.44-.05c.67-.06,1.35-.11,2-.14,4.65-.2,9.72.28,13.66,3a79,79,0,0,1,21.9,23.15c9.8,15.56,14.73,34,15.62,52.28a101.15,101.15,0,0,1-1,20.41c-1.49,9.48-3.6,19.13-7.76,27.82-3.66,7.65-9.32,15-18,17a26.17,26.17,0,0,1-14.09-.7,11.13,11.13,0,0,1-6.66-5.55,11.41,11.41,0,0,1-1-5.89c0-.36.06-.72.1-1.08-.06.51.06-.32.1-.5.19-1.06.29-2.12.52-3.17,1.25-5.78,5.34-11.46,11.7-11.86a8.48,8.48,0,0,1,7.25,3,7,7,0,0,1,1.39,7,6.5,6.5,0,0,1-5,3.73,5.38,5.38,0,0,1-1.7,0,3.65,3.65,0,0,1-.87-.26c-.4-.2-.14-.07-.06,0-.71-1.05.09-2.64.88-3.35,1.44-1.29-.68-3.41-2.12-2.12a5.88,5.88,0,0,0-1.91,3.72c-.16,1.35.08,3.36,1.36,4.12a8.25,8.25,0,0,0,7.67,0c5.58-2.69,6.51-9.59,2.92-14.31-4.05-5.31-11.51-5.62-16.87-2.12a17.1,17.1,0,0,0-6.22,7.59,29.8,29.8,0,0,0-1.78,7c-.77,4.5-.33,9,2.72,12.69,2.68,3.21,6.87,4.74,10.9,5.34a28.21,28.21,0,0,0,15.58-1.64c9.19-4,14.58-13.41,18-22.38A114.65,114.65,0,0,0,347.74,98a108.6,108.6,0,0,0-.35-23.84,117.09,117.09,0,0,0-7.19-29.26,92.65,92.65,0,0,0-17.34-28.36A82.43,82.43,0,0,0,309.38,4.63C305,1.53,299.27.83,294,1q-1.06,0-2.13.15c-.83.09-.82.05-1.62.16a26.63,26.63,0,0,0-7,2.34,58.84,58.84,0,0,0-12,7.41A75.3,75.3,0,0,0,251.5,35a105,105,0,0,0-10,27.82,125.93,125.93,0,0,0-2.84,25.67,109.81,109.81,0,0,0,2.7,23.55c2.15,10.09,5.36,20.57,11.81,28.8A27.57,27.57,0,0,0,264,149.4a28.42,28.42,0,0,0,15.63,1.39c4-.66,8-2.28,10.59-5.48a13.84,13.84,0,0,0,2.93-7.95,20.08,20.08,0,0,0-.39-4.57,28.76,28.76,0,0,0-2-7.46A16.66,16.66,0,0,0,284.3,118c-5.54-3.29-12.83-2.61-16.69,2.85-3.45,4.88-2,11.66,3.65,14.08,2.21.95,5.3,1.23,7.39-.23,1.15-.82,1.37-2.75,1.21-4a5.87,5.87,0,0,0-1.9-3.72c-1.44-1.29-3.57.83-2.13,2.12Z"/><path class="cls-2" d="M292,15.35a7.78,7.78,0,0,1,6.27.35c4.31,2.3,7.66,8.5,4.39,20.49-1.56,5.72-7.19,56.06-7.19,56.06h-1.44l-.62-4.38c-1.4-12.36-5.41-47-6.69-51.68-3.31-12.13.15-18.34,4.54-20.57Z"/><path class="cls-2" d="M289.89,93.34s-5.94-41.59-16.33-52c0,0-5.95-7.43-11.89,1.48s7.43,17.82,7.43,17.82A52.83,52.83,0,0,1,289.89,93.34Z"/><path class="cls-2" d="M300.25,93.34s5.94-41.59,16.34-52c0,0,5.94-7.43,11.88,1.48S321,60.66,321,60.66A52.88,52.88,0,0,0,300.25,93.34Z"/><path class="cls-2" d="M285.44,99.28s-13.37-28.22-25.25-31.19c0,0-8.91-3-8.91,5.94S284,100.76,284,100.76Z"/><path class="cls-2" d="M303.26,99.28s13.36-28.22,25.25-31.19c0,0,8.91-3,8.91,5.94s-32.68,26.73-32.68,26.73Z"/><path class="cls-2" d="M281,103.73s-12.27-12.27-27.68-4.15a8.68,8.68,0,0,0-4.23,4.75c-.87,2.51-.54,5.86,5.18,8.31C264.64,117.1,281,103.73,281,103.73Z"/><path class="cls-2" d="M306.63,103.73s12.28-12.27,27.68-4.15a8.68,8.68,0,0,1,4.23,4.75c.87,2.51.54,5.86-5.18,8.31C323,117.1,306.63,103.73,306.63,103.73Z"/><path class="cls-1" d="M204.78,142.26a5.64,5.64,0,0,0,5.35-6c-.24-3.25-3.43-5.49-6.53-5.46-3.44,0-6.21,2.73-7.2,5.88a10.67,10.67,0,0,0,2,9.52c4.9,6.38,13.69,6.32,20.78,4.38,7.66-2.1,14.49-6.38,20.73-11.2,6.75-5.21,12.89-11.21,19.86-16.14,4.62-3.27,9.74-5.78,15.42-6.41a14.9,14.9,0,0,1,4.85.14,2,2,0,0,0,2.39-.73,31.63,31.63,0,0,0,2.06-3.69c1.12-2.06,2.28-4.1,3.59-6.05a18.34,18.34,0,0,1,4.22-4.85,4.21,4.21,0,0,1,1.83-.83,2.7,2.7,0,0,1,1.77.61,15.85,15.85,0,0,1,4.08,4.47,65.53,65.53,0,0,1,5.78,10.68,2.36,2.36,0,0,1,.12.28s-.19-.21,0,0a.44.44,0,0,1,.08.2l2.51-1.46.23.29-1.3,2.26a64,64,0,0,1,7.17.84A29.88,29.88,0,0,1,326,123.71c8.72,5.74,16,13.42,24.49,19.49,7.59,5.42,17.05,10.46,26.67,10,4.5-.22,8.86-1.91,11.66-5.56,2.55-3.32,3.4-8,1.06-11.68-2.45-3.86-8.07-5.19-11.34-1.48-3,3.39-.69,9.2,3.95,9.27,1.93,0,1.93-3,0-3a2.61,2.61,0,0,1-2.37-2.74c.07-1.51,1.57-2.54,3-2.74,3.7-.51,5.69,3.91,5,7a10.21,10.21,0,0,1-7.39,7.37c-4,1.17-8.35.54-12.31-.59-8.3-2.37-15.53-7.42-22.15-12.81-6.85-5.6-13.31-12-21-16.48a30.46,30.46,0,0,0-10.79-3.88c-2.32-.37-4.66-.64-7-.79a1.52,1.52,0,0,0-1.3,2.26,3.76,3.76,0,0,0,.25.31,1.51,1.51,0,0,0,2.5-1.46,11.94,11.94,0,0,0-1.06-2.44c-.78-1.7-1.63-3.37-2.53-5-2-3.58-4.35-7.75-7.91-10s-6.95.07-9.33,2.86a60.17,60.17,0,0,0-6.93,10.94c-.3.55-.59,1.12-.92,1.66l-.18.29c-.16.26,0,0,.06-.07-.35.06,1-.23,1-.35a4.51,4.51,0,0,0-1.18-.22,23,23,0,0,0-8.78.66,40,40,0,0,0-14.55,7.39c-12.16,9.15-22.94,21.6-38.11,25.74-6.38,1.74-15.11,2-18.58-4.87-1.37-2.68-1.14-6.31,1.45-8.21a3.93,3.93,0,0,1,4-.47,2.85,2.85,0,0,1,1.88,2.81,2.59,2.59,0,0,1-2.36,2.35c-1.92,0-1.93,3,0,3Z"/><path class="cls-2" d="M372.64,142a1.58,1.58,0,0,1-2.06,1.53c-3.86-1.24-10.9-5-10.9-15.76,0-11.13,5.85-16.43,8.78-18.37a16.06,16.06,0,0,0,4.9-5c2.24-3.72,4.08-9.71-.31-16.74,0,0-5.94-8.92-8.91-8.92v-3s19.31,1.49,22.28,16.34,1.48,17.82,1.48,17.82-14.68,8-13.68,21.5a11.85,11.85,0,0,1-.45,4.47A21.27,21.27,0,0,0,372.64,142Z"/><path class="cls-2" d="M412.08,142a1.57,1.57,0,0,0,2.05,1.53c3.86-1.24,10.9-5,10.9-15.76,0-11.13-5.85-16.43-8.77-18.37a16,16,0,0,1-4.9-5c-2.24-3.72-4.09-9.71.3-16.74,0,0,5.94-8.92,8.92-8.92v-3s-19.31,1.49-22.28,16.34-1.49,17.82-1.49,17.82,14.69,8,13.68,21.5a11.85,11.85,0,0,0,.46,4.47A22,22,0,0,1,412.08,142Z"/><path class="cls-2" d="M392.36,124.75c3,0,4.45,4.46,4.45,4.46h7.43s-4.46-19.31-13.37-16.34-10.39,16.34-10.39,16.34h7.42S389.39,124.75,392.36,124.75Z"/><path class="cls-2" d="M192.56,14.93a7.8,7.8,0,0,1,6.26.34c4.32,2.3,7.66,8.5,4.39,20.49C201.65,41.48,196,91.82,196,91.82h-1.43L194,87.45c-1.41-12.37-5.42-47-6.69-51.69-3.31-12.13.15-18.34,4.54-20.57Z"/><path class="cls-1" d="M79.83,128a3,3,0,0,1,.94,3.2c-.13.34.36-.1-.11.11a4.36,4.36,0,0,1-.87.26,5.18,5.18,0,0,1-1.8,0,6.37,6.37,0,0,1-5.06-4.22,7.28,7.28,0,0,1,2-7A8.6,8.6,0,0,1,82.48,118c6.33.9,10.07,6.7,11.12,12.57.15.83.23,1.67.39,2.5.06.31.12.77.08.48.05.4.09.8.11,1.21a10.57,10.57,0,0,1-7.93,11.31,26.24,26.24,0,0,1-14.38.48,22.5,22.5,0,0,1-10.4-6.33c-6.41-6.66-9.72-16-12-24.75a110.94,110.94,0,0,1-3.73-22.85,116.46,116.46,0,0,1,7.69-47.06C60,28.75,72,12.79,88.8,5.27a22.48,22.48,0,0,1,6.11-2c.23,0,1.37-.12.53,0l.44,0c.67-.06,1.35-.11,2-.14,4.65-.2,9.72.28,13.66,3a79,79,0,0,1,21.9,23.15c9.8,15.56,14.73,34,15.62,52.28a101.15,101.15,0,0,1-1,20.41c-1.49,9.48-3.6,19.13-7.76,27.82-3.66,7.65-9.32,15-18,17a26.17,26.17,0,0,1-14.09-.7,11.13,11.13,0,0,1-6.66-5.55,11.41,11.41,0,0,1-1-5.89c0-.36.06-.72.1-1.08-.06.51.06-.32.1-.5.19-1.06.29-2.12.52-3.17,1.25-5.78,5.34-11.46,11.7-11.86a8.48,8.48,0,0,1,7.25,3,7,7,0,0,1,1.39,7,6.5,6.5,0,0,1-5,3.73,5.38,5.38,0,0,1-1.7,0,3.65,3.65,0,0,1-.87-.26c-.4-.2-.14-.07-.06,0-.71-1.05.09-2.64.88-3.35,1.44-1.29-.68-3.41-2.12-2.12a5.88,5.88,0,0,0-1.91,3.72c-.16,1.35.08,3.36,1.36,4.12a8.25,8.25,0,0,0,7.67,0c5.58-2.69,6.51-9.59,2.92-14.31-4.05-5.31-11.51-5.62-16.87-2.12a17.1,17.1,0,0,0-6.22,7.59,29.8,29.8,0,0,0-1.78,7c-.77,4.5-.33,9,2.72,12.69,2.68,3.21,6.87,4.74,10.9,5.34a28.21,28.21,0,0,0,15.58-1.64c9.19-4,14.58-13.41,18-22.38A114.65,114.65,0,0,0,151.74,97a108.6,108.6,0,0,0-.35-23.84,117.09,117.09,0,0,0-7.19-29.26,92.65,92.65,0,0,0-17.34-28.36A82.43,82.43,0,0,0,113.38,3.63C109,.53,103.27-.17,98,0q-1.07,0-2.13.15c-.83.09-.82.05-1.62.16a26.63,26.63,0,0,0-7,2.34,58.84,58.84,0,0,0-12,7.41A75.3,75.3,0,0,0,55.5,34a105,105,0,0,0-10,27.82,125.93,125.93,0,0,0-2.84,25.67A109.81,109.81,0,0,0,45.34,111c2.15,10.09,5.36,20.57,11.81,28.8A27.57,27.57,0,0,0,68,148.4a28.42,28.42,0,0,0,15.63,1.39c4-.66,8-2.28,10.59-5.48a13.84,13.84,0,0,0,2.93-7.95,20.08,20.08,0,0,0-.39-4.57,28.76,28.76,0,0,0-2-7.46A16.66,16.66,0,0,0,88.3,117c-5.54-3.29-12.83-2.61-16.69,2.85-3.45,4.88-2,11.66,3.65,14.08,2.21.95,5.3,1.23,7.39-.23,1.15-.82,1.37-2.75,1.21-4A5.87,5.87,0,0,0,82,125.9c-1.44-1.29-3.57.83-2.13,2.12Z"/><path class="cls-2" d="M96,14.35a7.78,7.78,0,0,1,6.27.35c4.31,2.3,7.66,8.5,4.39,20.49-1.56,5.72-7.19,56.06-7.19,56.06H98.06l-.62-4.38C96,74.51,92,39.88,90.75,35.19c-3.31-12.13.15-18.34,4.54-20.57Z"/><path class="cls-2" d="M93.89,92.34S88,50.75,77.56,40.36c0,0-6-7.43-11.89,1.48S73.1,59.66,73.1,59.66A52.83,52.83,0,0,1,93.89,92.34Z"/><path class="cls-2" d="M104.25,92.34s5.94-41.59,16.34-52c0,0,5.94-7.43,11.88,1.48S125,59.66,125,59.66A52.88,52.88,0,0,0,104.25,92.34Z"/><path class="cls-2" d="M89.44,98.28S76.07,70.06,64.19,67.09c0,0-8.91-3-8.91,5.94S88,99.76,88,99.76Z"/><path class="cls-2" d="M107.26,98.28s13.36-28.22,25.25-31.19c0,0,8.91-3,8.91,5.94s-32.68,26.73-32.68,26.73Z"/><path class="cls-2" d="M85,102.73S72.71,90.46,57.3,98.58a8.68,8.68,0,0,0-4.23,4.75c-.87,2.51-.54,5.86,5.18,8.31C68.64,116.1,85,102.73,85,102.73Z"/><path class="cls-2" d="M110.63,102.73s12.28-12.27,27.68-4.15a8.68,8.68,0,0,1,4.23,4.75c.87,2.51.54,5.86-5.18,8.31C127,116.1,110.63,102.73,110.63,102.73Z"/><path class="cls-1" d="M8.78,141.26a5.64,5.64,0,0,0,5.35-6c-.24-3.25-3.43-5.49-6.53-5.46-3.44,0-6.21,2.73-7.2,5.88a10.67,10.67,0,0,0,2.05,9.52c4.9,6.38,13.69,6.32,20.78,4.38,7.66-2.1,14.49-6.38,20.73-11.2,6.75-5.21,12.89-11.21,19.86-16.14,4.62-3.27,9.74-5.78,15.42-6.41a14.9,14.9,0,0,1,4.85.14,2,2,0,0,0,2.39-.73,31.63,31.63,0,0,0,2.06-3.69c1.12-2.06,2.28-4.1,3.59-6.05a18.34,18.34,0,0,1,4.22-4.85,4.21,4.21,0,0,1,1.83-.83,2.7,2.7,0,0,1,1.77.61,15.85,15.85,0,0,1,4.08,4.47,65.53,65.53,0,0,1,5.78,10.68,2.36,2.36,0,0,1,.12.28s-.19-.21,0,0a.44.44,0,0,1,.08.2l2.51-1.46.23.29-1.3,2.26a64,64,0,0,1,7.17.84A29.88,29.88,0,0,1,130,122.71c8.72,5.74,16,13.42,24.49,19.49,7.59,5.42,17.05,10.46,26.67,10,4.5-.22,8.86-1.91,11.66-5.56,2.55-3.32,3.4-8,1.06-11.68-2.45-3.86-8.07-5.19-11.34-1.48-3,3.39-.69,9.2,3.95,9.27,1.93,0,1.93-3,0-3a2.61,2.61,0,0,1-2.37-2.74c.07-1.51,1.57-2.54,3-2.74,3.7-.51,5.69,3.91,5,7a10.21,10.21,0,0,1-7.39,7.37c-4,1.17-8.35.54-12.31-.59-8.3-2.37-15.53-7.42-22.15-12.81-6.85-5.6-13.31-12-21-16.48a30.46,30.46,0,0,0-10.79-3.88c-2.32-.37-4.66-.64-7-.79a1.52,1.52,0,0,0-1.3,2.26,3.76,3.76,0,0,0,.25.31,1.51,1.51,0,0,0,2.5-1.46,11.94,11.94,0,0,0-1.06-2.44c-.78-1.7-1.63-3.37-2.53-5-2-3.58-4.35-7.75-7.91-10s-6.95.07-9.33,2.86a60.17,60.17,0,0,0-6.93,10.94c-.3.55-.59,1.12-.92,1.66l-.18.29c-.16.26,0,0,.06-.07-.35.06,1-.23,1-.35a4.51,4.51,0,0,0-1.18-.22,23,23,0,0,0-8.78.66,40,40,0,0,0-14.55,7.39c-12.16,9.15-22.94,21.6-38.11,25.74-6.38,1.74-15.11,2-18.58-4.87-1.37-2.68-1.14-6.31,1.45-8.21a3.93,3.93,0,0,1,4-.47,2.85,2.85,0,0,1,1.88,2.81,2.59,2.59,0,0,1-2.36,2.35c-1.92,0-1.93,3,0,3Z"/><path class="cls-2" d="M176.64,141a1.58,1.58,0,0,1-2.06,1.53c-3.86-1.24-10.9-5-10.9-15.76,0-11.13,5.85-16.43,8.78-18.37a16.06,16.06,0,0,0,4.9-5c2.24-3.72,4.08-9.71-.31-16.74,0,0-5.94-8.92-8.91-8.92v-3s19.31,1.49,22.28,16.34,1.48,17.82,1.48,17.82-14.68,8-13.68,21.5a11.85,11.85,0,0,1-.45,4.47A21.27,21.27,0,0,0,176.64,141Z"/><path class="cls-2" d="M216.08,141a1.57,1.57,0,0,0,2,1.53c3.86-1.24,10.9-5,10.9-15.76,0-11.13-5.85-16.43-8.77-18.37a16,16,0,0,1-4.9-5c-2.24-3.72-4.09-9.71.3-16.74,0,0,5.94-8.92,8.92-8.92v-3s-19.31,1.49-22.28,16.34-1.49,17.82-1.49,17.82,14.69,8,13.68,21.5a11.85,11.85,0,0,0,.46,4.47A22,22,0,0,1,216.08,141Z"/><path class="cls-2" d="M196.36,123.75c3,0,4.45,4.46,4.45,4.46h7.43s-4.46-19.31-13.37-16.34-10.39,16.34-10.39,16.34h7.42S193.39,123.75,196.36,123.75Z"/><path class="cls-1" d="M1256.83,134a3,3,0,0,1,.94,3.2c-.13.34.36-.1-.11.11a4.36,4.36,0,0,1-.87.26,5.18,5.18,0,0,1-1.8,0,6.37,6.37,0,0,1-5.06-4.22,7.28,7.28,0,0,1,2-7,8.6,8.6,0,0,1,7.52-2.43c6.33.9,10.07,6.7,11.12,12.57.15.83.23,1.67.39,2.5.06.31.12.77.08.48,0,.4.09.8.11,1.21a10.57,10.57,0,0,1-7.93,11.31,26.24,26.24,0,0,1-14.38.48,22.5,22.5,0,0,1-10.4-6.33c-6.41-6.66-9.72-16-12-24.75a110.94,110.94,0,0,1-3.73-22.85,116.46,116.46,0,0,1,7.69-47.06c6.56-16.82,18.52-32.78,35.37-40.3a22.48,22.48,0,0,1,6.11-2c.23,0,1.37-.12.53,0l.44-.05c.67-.06,1.35-.11,2-.14,4.65-.2,9.72.28,13.66,3a79,79,0,0,1,21.9,23.15c9.8,15.56,14.73,34,15.62,52.28a101.15,101.15,0,0,1-1,20.41c-1.49,9.48-3.6,19.13-7.76,27.82-3.66,7.65-9.32,15-18,17a26.17,26.17,0,0,1-14.09-.7,11.13,11.13,0,0,1-6.66-5.55,11.41,11.41,0,0,1-1-5.89c0-.36.06-.72.1-1.08-.06.51.06-.32.1-.5.19-1.06.29-2.12.52-3.17,1.25-5.78,5.34-11.46,11.7-11.86a8.48,8.48,0,0,1,7.25,3,7,7,0,0,1,1.39,7,6.5,6.5,0,0,1-5,3.73,5.38,5.38,0,0,1-1.7,0,3.65,3.65,0,0,1-.87-.26c-.4-.2-.14-.07-.06,0-.71-1.05.09-2.64.88-3.35,1.44-1.29-.68-3.41-2.12-2.12a5.88,5.88,0,0,0-1.91,3.72c-.16,1.35.08,3.36,1.36,4.12a8.25,8.25,0,0,0,7.67,0c5.58-2.69,6.51-9.59,2.92-14.31-4-5.31-11.51-5.62-16.87-2.12a17.1,17.1,0,0,0-6.22,7.59,29.8,29.8,0,0,0-1.78,7c-.77,4.5-.33,9,2.72,12.69,2.68,3.21,6.87,4.74,10.9,5.34a28.21,28.21,0,0,0,15.58-1.64c9.19-4,14.58-13.41,18-22.38a114.65,114.65,0,0,0,6.54-28.86,108.6,108.6,0,0,0-.35-23.84,117.09,117.09,0,0,0-7.19-29.26,92.65,92.65,0,0,0-17.34-28.36,82.43,82.43,0,0,0-13.48-11.89c-4.4-3.1-10.11-3.8-15.37-3.6q-1.07,0-2.13.15c-.83.09-.82.05-1.62.16a26.63,26.63,0,0,0-7,2.34,58.84,58.84,0,0,0-12,7.41A75.3,75.3,0,0,0,1232.5,40a105,105,0,0,0-10,27.82,125.93,125.93,0,0,0-2.84,25.67,109.81,109.81,0,0,0,2.7,23.55c2.15,10.09,5.36,20.57,11.81,28.8A27.57,27.57,0,0,0,1245,154.4a28.42,28.42,0,0,0,15.63,1.39c4-.66,8-2.28,10.59-5.48a13.84,13.84,0,0,0,2.93-7.95,20.08,20.08,0,0,0-.39-4.57,28.76,28.76,0,0,0-2-7.46,16.66,16.66,0,0,0-6.46-7.36c-5.54-3.29-12.83-2.61-16.69,2.85-3.45,4.88-2,11.66,3.65,14.08,2.21.95,5.3,1.23,7.39-.23,1.15-.82,1.37-2.75,1.21-4a5.87,5.87,0,0,0-1.9-3.72c-1.44-1.29-3.57.83-2.13,2.12Z"/><path class="cls-2" d="M1273,20.35a7.78,7.78,0,0,1,6.27.35c4.31,2.3,7.66,8.5,4.39,20.49-1.56,5.72-7.19,56.06-7.19,56.06h-1.44l-.62-4.38c-1.4-12.36-5.41-47-6.69-51.68-3.31-12.13.15-18.34,4.54-20.57Z"/><path class="cls-2" d="M1270.89,98.34s-5.94-41.59-16.33-52c0,0-6-7.43-11.89,1.48s7.43,17.82,7.43,17.82A52.83,52.83,0,0,1,1270.89,98.34Z"/><path class="cls-2" d="M1281.25,98.34s5.94-41.59,16.34-52c0,0,5.94-7.43,11.88,1.48S1302,65.66,1302,65.66A52.88,52.88,0,0,0,1281.25,98.34Z"/><path class="cls-2" d="M1266.44,104.28s-13.37-28.22-25.25-31.19c0,0-8.91-3-8.91,5.94S1265,105.76,1265,105.76Z"/><path class="cls-2" d="M1284.26,104.28s13.36-28.22,25.25-31.19c0,0,8.91-3,8.91,5.94s-32.68,26.73-32.68,26.73Z"/><path class="cls-2" d="M1262,108.73s-12.27-12.27-27.68-4.15a8.68,8.68,0,0,0-4.23,4.75c-.87,2.51-.54,5.86,5.18,8.31C1245.64,122.1,1262,108.73,1262,108.73Z"/><path class="cls-2" d="M1287.63,108.73s12.28-12.27,27.68-4.15a8.68,8.68,0,0,1,4.23,4.75c.87,2.51.54,5.86-5.18,8.31C1304,122.1,1287.63,108.73,1287.63,108.73Z"/><path class="cls-1" d="M1185.78,147.26a5.64,5.64,0,0,0,5.35-6c-.24-3.25-3.43-5.49-6.53-5.46-3.44,0-6.21,2.73-7.2,5.88a10.67,10.67,0,0,0,2,9.52c4.9,6.38,13.69,6.32,20.78,4.38,7.66-2.1,14.49-6.38,20.73-11.2,6.75-5.21,12.89-11.21,19.86-16.14,4.62-3.27,9.74-5.78,15.42-6.41a14.9,14.9,0,0,1,4.85.14,2,2,0,0,0,2.39-.73,31.63,31.63,0,0,0,2.06-3.69c1.12-2.06,2.28-4.1,3.59-6.05a18.34,18.34,0,0,1,4.22-4.85,4.21,4.21,0,0,1,1.83-.83,2.7,2.7,0,0,1,1.77.61,15.85,15.85,0,0,1,4.08,4.47,65.53,65.53,0,0,1,5.78,10.68,2.36,2.36,0,0,1,.12.28s-.19-.21,0,0a.44.44,0,0,1,.08.2l2.51-1.46.23.29-1.3,2.26a64,64,0,0,1,7.17.84,29.88,29.88,0,0,1,11.35,4.81c8.72,5.74,16,13.42,24.49,19.49,7.59,5.42,17,10.46,26.67,10,4.5-.22,8.86-1.91,11.66-5.56,2.55-3.32,3.4-8,1.06-11.68-2.45-3.86-8.07-5.19-11.34-1.48-3,3.39-.69,9.2,4,9.27,1.93,0,1.93-3,0-3a2.61,2.61,0,0,1-2.37-2.74c.07-1.51,1.57-2.54,3-2.74,3.7-.51,5.69,3.91,5,7a10.21,10.21,0,0,1-7.39,7.37c-4,1.17-8.35.54-12.31-.59-8.3-2.37-15.53-7.42-22.15-12.81-6.85-5.6-13.31-12-21-16.48a30.46,30.46,0,0,0-10.79-3.88c-2.32-.37-4.66-.64-7-.79a1.52,1.52,0,0,0-1.3,2.26,3.76,3.76,0,0,0,.25.31,1.51,1.51,0,0,0,2.5-1.46,11.94,11.94,0,0,0-1.06-2.44c-.78-1.7-1.63-3.37-2.53-5-2-3.58-4.35-7.75-7.91-10s-7,.07-9.33,2.86a60.17,60.17,0,0,0-6.93,10.94c-.3.55-.59,1.12-.92,1.66l-.18.29c-.16.26,0,0,.06-.07-.35.06,1-.23,1-.35a4.51,4.51,0,0,0-1.18-.22,23,23,0,0,0-8.78.66,40,40,0,0,0-14.55,7.39c-12.16,9.15-22.94,21.6-38.11,25.74-6.38,1.74-15.11,2-18.58-4.87-1.37-2.68-1.14-6.31,1.45-8.21a3.93,3.93,0,0,1,4-.47,2.85,2.85,0,0,1,1.88,2.81,2.59,2.59,0,0,1-2.36,2.35c-1.92,0-1.93,3,0,3Z"/><path class="cls-2" d="M1173.56,19.93a7.8,7.8,0,0,1,6.26.34c4.32,2.3,7.66,8.5,4.39,20.49-1.56,5.72-7.19,56.06-7.19,56.06h-1.43l-.62-4.37c-1.41-12.37-5.42-47-6.69-51.69-3.31-12.13.15-18.34,4.54-20.57Z"/><path class="cls-1" d="M1060.83,133a3,3,0,0,1,.94,3.2c-.13.34.36-.1-.11.11a4.36,4.36,0,0,1-.87.26,5.18,5.18,0,0,1-1.8,0,6.37,6.37,0,0,1-5.06-4.22,7.28,7.28,0,0,1,2-7,8.6,8.6,0,0,1,7.52-2.43c6.33.9,10.07,6.7,11.12,12.57.15.83.23,1.67.39,2.5.06.31.12.77.08.48,0,.4.09.8.11,1.21a10.57,10.57,0,0,1-7.93,11.31,26.24,26.24,0,0,1-14.38.48,22.5,22.5,0,0,1-10.4-6.33c-6.41-6.66-9.72-16-12-24.75a110.94,110.94,0,0,1-3.73-22.85,116.46,116.46,0,0,1,7.69-47.06c6.56-16.82,18.52-32.78,35.37-40.3a22.48,22.48,0,0,1,6.11-2c.23,0,1.37-.12.53,0l.44-.05c.67-.06,1.35-.11,2-.14,4.65-.2,9.72.28,13.66,3a79,79,0,0,1,21.9,23.15c9.8,15.56,14.73,34,15.62,52.28a101.15,101.15,0,0,1-1,20.41c-1.49,9.48-3.6,19.13-7.76,27.82-3.66,7.65-9.32,15-18,17a26.17,26.17,0,0,1-14.09-.7,11.13,11.13,0,0,1-6.66-5.55,11.41,11.41,0,0,1-1-5.89c0-.36.06-.72.1-1.08-.06.51.06-.32.1-.5.19-1.06.29-2.12.52-3.17,1.25-5.78,5.34-11.46,11.7-11.86a8.48,8.48,0,0,1,7.25,3,7,7,0,0,1,1.39,7,6.5,6.5,0,0,1-5,3.73,5.38,5.38,0,0,1-1.7,0,3.65,3.65,0,0,1-.87-.26c-.4-.2-.14-.07-.06,0-.71-1.05.09-2.64.88-3.35,1.44-1.29-.68-3.41-2.12-2.12a5.88,5.88,0,0,0-1.91,3.72c-.16,1.35.08,3.36,1.36,4.12a8.25,8.25,0,0,0,7.67,0c5.58-2.69,6.51-9.59,2.92-14.31-4-5.31-11.51-5.62-16.87-2.12a17.1,17.1,0,0,0-6.22,7.59,29.8,29.8,0,0,0-1.78,7c-.77,4.5-.33,9,2.72,12.69,2.68,3.21,6.87,4.74,10.9,5.34a28.21,28.21,0,0,0,15.58-1.64c9.19-4,14.58-13.41,18-22.38a114.65,114.65,0,0,0,6.54-28.86,108.6,108.6,0,0,0-.35-23.84,117.09,117.09,0,0,0-7.19-29.26,92.65,92.65,0,0,0-17.34-28.36,82.43,82.43,0,0,0-13.48-11.89c-4.4-3.1-10.11-3.8-15.37-3.6q-1.07,0-2.13.15c-.83.09-.82.05-1.62.16a26.63,26.63,0,0,0-7,2.34,58.84,58.84,0,0,0-12,7.41A75.3,75.3,0,0,0,1036.5,39a105,105,0,0,0-10,27.82,125.93,125.93,0,0,0-2.84,25.67,109.81,109.81,0,0,0,2.7,23.55c2.15,10.09,5.36,20.57,11.81,28.8A27.57,27.57,0,0,0,1049,153.4a28.42,28.42,0,0,0,15.63,1.39c4-.66,8-2.28,10.59-5.48a13.84,13.84,0,0,0,2.93-7.95,20.08,20.08,0,0,0-.39-4.57,28.76,28.76,0,0,0-2-7.46,16.66,16.66,0,0,0-6.46-7.36c-5.54-3.29-12.83-2.61-16.69,2.85-3.45,4.88-2,11.66,3.65,14.08,2.21.95,5.3,1.23,7.39-.23,1.15-.82,1.37-2.75,1.21-4a5.87,5.87,0,0,0-1.9-3.72c-1.44-1.29-3.57.83-2.13,2.12Z"/><path class="cls-2" d="M1077,19.35a7.78,7.78,0,0,1,6.27.35c4.31,2.3,7.66,8.5,4.39,20.49-1.56,5.72-7.19,56.06-7.19,56.06h-1.44l-.62-4.38c-1.4-12.36-5.41-47-6.69-51.68-3.31-12.13.15-18.34,4.54-20.57Z"/><path class="cls-2" d="M1074.89,97.34s-5.94-41.59-16.33-52c0,0-6-7.43-11.89,1.48s7.43,17.82,7.43,17.82A52.83,52.83,0,0,1,1074.89,97.34Z"/><path class="cls-2" d="M1085.25,97.34s5.94-41.59,16.34-52c0,0,5.94-7.43,11.88,1.48S1106,64.66,1106,64.66A52.88,52.88,0,0,0,1085.25,97.34Z"/><path class="cls-2" d="M1070.44,103.28s-13.37-28.22-25.25-31.19c0,0-8.91-3-8.91,5.94S1069,104.76,1069,104.76Z"/><path class="cls-2" d="M1088.26,103.28s13.36-28.22,25.25-31.19c0,0,8.91-3,8.91,5.94s-32.68,26.73-32.68,26.73Z"/><path class="cls-2" d="M1066,107.73s-12.27-12.27-27.68-4.15a8.68,8.68,0,0,0-4.23,4.75c-.87,2.51-.54,5.86,5.18,8.31C1049.64,121.1,1066,107.73,1066,107.73Z"/><path class="cls-2" d="M1091.63,107.73s12.28-12.27,27.68-4.15a8.68,8.68,0,0,1,4.23,4.75c.87,2.51.54,5.86-5.18,8.31C1108,121.1,1091.63,107.73,1091.63,107.73Z"/><path class="cls-1" d="M989.78,146.26a5.64,5.64,0,0,0,5.35-6c-.24-3.25-3.43-5.49-6.53-5.46-3.44,0-6.21,2.73-7.2,5.88a10.67,10.67,0,0,0,2.05,9.52c4.9,6.38,13.69,6.32,20.78,4.38,7.66-2.1,14.49-6.38,20.73-11.2,6.75-5.21,12.89-11.21,19.86-16.14,4.62-3.27,9.74-5.78,15.42-6.41a14.9,14.9,0,0,1,4.85.14,2,2,0,0,0,2.39-.73,31.63,31.63,0,0,0,2.06-3.69c1.12-2.06,2.28-4.1,3.59-6.05a18.34,18.34,0,0,1,4.22-4.85,4.21,4.21,0,0,1,1.83-.83,2.7,2.7,0,0,1,1.77.61,15.85,15.85,0,0,1,4.08,4.47,65.53,65.53,0,0,1,5.78,10.68,2.36,2.36,0,0,1,.12.28s-.19-.21,0,0a.44.44,0,0,1,.08.2l2.51-1.46.23.29-1.3,2.26a64,64,0,0,1,7.17.84,29.88,29.88,0,0,1,11.35,4.81c8.72,5.74,16,13.42,24.49,19.49,7.59,5.42,17,10.46,26.67,10,4.5-.22,8.86-1.91,11.66-5.56,2.55-3.32,3.4-8,1.06-11.68-2.45-3.86-8.07-5.19-11.34-1.48-3,3.39-.69,9.2,4,9.27,1.93,0,1.93-3,0-3a2.61,2.61,0,0,1-2.37-2.74c.07-1.51,1.57-2.54,3-2.74,3.7-.51,5.69,3.91,5,7a10.21,10.21,0,0,1-7.39,7.37c-4,1.17-8.35.54-12.31-.59-8.3-2.37-15.53-7.42-22.15-12.81-6.85-5.6-13.31-12-21-16.48a30.46,30.46,0,0,0-10.79-3.88c-2.32-.37-4.66-.64-7-.79a1.52,1.52,0,0,0-1.3,2.26,3.76,3.76,0,0,0,.25.31,1.51,1.51,0,0,0,2.5-1.46,11.94,11.94,0,0,0-1.06-2.44c-.78-1.7-1.63-3.37-2.53-5-2-3.58-4.35-7.75-7.91-10s-7,.07-9.33,2.86a60.17,60.17,0,0,0-6.93,10.94c-.3.55-.59,1.12-.92,1.66l-.18.29c-.16.26,0,0,.06-.07-.35.06,1-.23,1-.35a4.51,4.51,0,0,0-1.18-.22,23,23,0,0,0-8.78.66,40,40,0,0,0-14.55,7.39c-12.16,9.15-22.94,21.6-38.11,25.74-6.38,1.74-15.11,2-18.58-4.87-1.37-2.68-1.14-6.31,1.45-8.21a3.93,3.93,0,0,1,4-.47,2.85,2.85,0,0,1,1.88,2.81,2.59,2.59,0,0,1-2.36,2.35c-1.92,0-1.93,3,0,3Z"/><path class="cls-2" d="M1157.64,146a1.58,1.58,0,0,1-2.06,1.53c-3.86-1.24-10.9-5-10.9-15.76,0-11.13,5.85-16.43,8.78-18.37a16.06,16.06,0,0,0,4.9-5c2.24-3.72,4.08-9.71-.31-16.74,0,0-5.94-8.92-8.91-8.92v-3s19.31,1.49,22.28,16.34,1.48,17.82,1.48,17.82-14.68,8-13.68,21.5a11.85,11.85,0,0,1-.45,4.47A21.27,21.27,0,0,0,1157.64,146Z"/><path class="cls-2" d="M1197.08,146a1.57,1.57,0,0,0,2.05,1.53c3.86-1.24,10.9-5,10.9-15.76,0-11.13-5.85-16.43-8.77-18.37a16,16,0,0,1-4.9-5c-2.24-3.72-4.09-9.71.3-16.74,0,0,5.94-8.92,8.92-8.92v-3s-19.31,1.49-22.28,16.34-1.49,17.82-1.49,17.82,14.69,8,13.68,21.5a11.85,11.85,0,0,0,.46,4.47A22,22,0,0,1,1197.08,146Z"/><path class="cls-2" d="M1177.36,128.75c3,0,4.45,4.46,4.45,4.46h7.43s-4.46-19.31-13.37-16.34-10.39,16.34-10.39,16.34h7.42S1174.39,128.75,1177.36,128.75Z"/><path class="cls-2" d="M976.93,19.09a7.8,7.8,0,0,1,6.26.34c4.32,2.3,7.66,8.5,4.39,20.49C986,45.64,980.39,96,980.39,96H979l-.62-4.37c-1.41-12.37-5.42-47-6.69-51.69-3.31-12.13.15-18.33,4.54-20.57Z"/><path class="cls-2" d="M961,145.12a1.58,1.58,0,0,1-2.06,1.52c-3.86-1.24-10.9-5-10.9-15.76,0-11.13,5.85-16.42,8.78-18.37a16.06,16.06,0,0,0,4.9-5c2.24-3.72,4.08-9.71-.31-16.74,0,0-5.94-8.92-8.91-8.92v-3s19.31,1.49,22.28,16.34,1.48,17.82,1.48,17.82-14.68,8-13.68,21.5a11.85,11.85,0,0,1-.45,4.47A21.27,21.27,0,0,0,961,145.12Z"/><path class="cls-2" d="M1000.45,145.12a1.57,1.57,0,0,0,2,1.52c3.86-1.24,10.9-5,10.9-15.76,0-11.13-5.85-16.42-8.77-18.37a16,16,0,0,1-4.9-5c-2.24-3.72-4.09-9.71.3-16.74,0,0,5.94-8.92,8.91-8.92v-3s-19.3,1.49-22.27,16.34-1.49,17.82-1.49,17.82,14.69,8,13.68,21.5a11.85,11.85,0,0,0,.46,4.47A22,22,0,0,1,1000.45,145.12Z"/><path class="cls-2" d="M980.73,127.91c3,0,4.45,4.46,4.45,4.46h7.43s-4.46-19.31-13.37-16.34-10.39,16.34-10.39,16.34h7.42S977.76,127.91,980.73,127.91Z"/></g></g></svg>