<svg xmlns="http://www.w3.org/2000/svg" viewBox="0 0 783.2 155.65"><defs><style>.cls-1,.cls-2{fill:#9f724b;}.cls-2{stroke:#9f724b;stroke-miterlimit:10;}</style></defs><title>Fichier 5</title><g id="Calque_2" data-name="Calque 2"><g id="Calque_3" data-name="Calque 3"><path class="cls-1" d="M703.37,27.63a2.94,2.94,0,0,1-.94-3.19c.13-.35-.36.09.11-.11a3.79,3.79,0,0,1,.87-.26,5,5,0,0,1,1.8,0,6.36,6.36,0,0,1,5.06,4.21,7.27,7.27,0,0,1-2,7,8.6,8.6,0,0,1-7.52,2.43c-6.33-.9-10.07-6.69-11.12-12.56-.15-.84-.23-1.67-.39-2.5a4.44,4.44,0,0,0-.08-.48c0-.4-.09-.81-.11-1.21a11.34,11.34,0,0,1,1.12-5.9A11.31,11.31,0,0,1,697,9.58a26.15,26.15,0,0,1,14.38-.48,22.48,22.48,0,0,1,10.4,6.32c6.41,6.67,9.72,16,12,24.75A110.92,110.92,0,0,1,737.46,63a116.49,116.49,0,0,1-7.69,47.06c-6.56,16.81-18.52,32.77-35.37,40.29a22.14,22.14,0,0,1-6.11,2c-.23,0-1.37.12-.53,0l-.44.05c-.67.07-1.35.12-2,.15-4.65.2-9.72-.28-13.66-3a79,79,0,0,1-21.9-23.16c-9.8-15.55-14.73-34-15.62-52.28a101.18,101.18,0,0,1,1-20.41c1.49-9.47,3.6-19.12,7.76-27.82,3.66-7.65,9.32-15,18-17a26.27,26.27,0,0,1,14.09.7,11.16,11.16,0,0,1,6.66,5.55,11.45,11.45,0,0,1,1,5.9c0,.36-.06.72-.1,1.07.06-.51-.06.32-.1.51-.19,1-.29,2.12-.51,3.17-1.26,5.78-5.35,11.45-11.71,11.86a8.52,8.52,0,0,1-7.25-3,7,7,0,0,1-1.39-7,6.53,6.53,0,0,1,5-3.72,4.92,4.92,0,0,1,1.71.05,3.28,3.28,0,0,1,.86.26c.4.2.14.06.06,0,.71,1-.09,2.64-.88,3.35-1.44,1.3.69,3.41,2.12,2.13A5.91,5.91,0,0,0,672.28,26c.16-1.34-.08-3.36-1.36-4.12a8.25,8.25,0,0,0-7.67,0c-5.58,2.7-6.51,9.59-2.92,14.31,4,5.31,11.51,5.62,16.87,2.12a17,17,0,0,0,6.22-7.58,29.8,29.8,0,0,0,1.78-7c.77-4.5.33-9-2.72-12.69-2.68-3.21-6.87-4.75-10.89-5.35A28.28,28.28,0,0,0,656,7.44c-9.2,4-14.59,13.4-18,22.38a114.65,114.65,0,0,0-6.54,28.86,108.51,108.51,0,0,0,.35,23.83A117.09,117.09,0,0,0,639,111.77a92.53,92.53,0,0,0,17.34,28.36A82.49,82.49,0,0,0,669.82,152c4.4,3.09,10.11,3.8,15.37,3.59.71,0,1.42-.07,2.13-.15s.82-.05,1.62-.16a26.61,26.61,0,0,0,7-2.33,59.33,59.33,0,0,0,12-7.42,75.15,75.15,0,0,0,19.82-23.87,105.17,105.17,0,0,0,10-27.83,125.85,125.85,0,0,0,2.84-25.67,110,110,0,0,0-2.7-23.55c-2.15-10.08-5.36-20.56-11.81-28.79a27.6,27.6,0,0,0-10.87-8.6,28.42,28.42,0,0,0-15.63-1.38c-4,.65-8,2.27-10.59,5.48A13.78,13.78,0,0,0,686,19.29a20,20,0,0,0,.39,4.57,28.93,28.93,0,0,0,2,7.47,16.69,16.69,0,0,0,6.46,7.35c5.54,3.29,12.83,2.62,16.69-2.84,3.45-4.89,2-11.66-3.65-14.08-2.2-1-5.3-1.24-7.39.23-1.15.81-1.37,2.75-1.21,4a5.86,5.86,0,0,0,1.91,3.73c1.43,1.28,3.56-.83,2.12-2.13Z"/><path class="cls-2" d="M687.17,141.3a7.82,7.82,0,0,1-6.27-.34c-4.31-2.3-7.66-8.51-4.39-20.5,1.56-5.71,7.19-56.06,7.19-56.06h1.44l.62,4.38c1.4,12.37,5.41,47,6.69,51.68,3.31,12.13-.15,18.34-4.54,20.58Z"/><path class="cls-2" d="M689.31,63.32s5.94,41.58,16.33,52c0,0,6,7.42,11.89-1.49S710.1,96,710.1,96A52.79,52.79,0,0,1,689.31,63.32Z"/><path class="cls-2" d="M679,63.32s-5.94,41.58-16.34,52c0,0-5.94,7.42-11.88-1.49S658.16,96,658.16,96A52.83,52.83,0,0,0,679,63.32Z"/><path class="cls-2" d="M693.76,57.38S707.13,85.6,719,88.57c0,0,8.91,3,8.91-5.94s-32.67-26.74-32.67-26.74Z"/><path class="cls-2" d="M675.94,57.38S662.58,85.6,650.69,88.57c0,0-8.91,3-8.91-5.94s32.68-26.74,32.68-26.74Z"/><path class="cls-2" d="M698.22,52.92s12.27,12.28,27.68,4.15a8.66,8.66,0,0,0,4.23-4.74c.87-2.52.54-5.87-5.18-8.32C714.56,39.56,698.22,52.92,698.22,52.92Z"/><path class="cls-2" d="M672.57,52.92S660.3,65.2,644.89,57.07a8.66,8.66,0,0,1-4.23-4.74c-.87-2.52-.54-5.87,5.18-8.32C656.23,39.56,672.57,52.92,672.57,52.92Z"/><path class="cls-1" d="M774.42,14.39a5.65,5.65,0,0,0-5.35,6.05c.24,3.25,3.43,5.48,6.53,5.46,3.44,0,6.21-2.74,7.2-5.89a10.66,10.66,0,0,0-2-9.51c-4.9-6.38-13.69-6.33-20.78-4.39-7.66,2.1-14.49,6.38-20.73,11.2-6.75,5.21-12.89,11.21-19.86,16.14-4.62,3.27-9.74,5.79-15.42,6.41a14.9,14.9,0,0,1-4.85-.14,2,2,0,0,0-2.39.73,32.46,32.46,0,0,0-2.06,3.69c-1.12,2.06-2.28,4.11-3.59,6.06A18.45,18.45,0,0,1,686.85,55a4.21,4.21,0,0,1-1.83.83,2.69,2.69,0,0,1-1.77-.6,15.85,15.85,0,0,1-4.08-4.47,65.94,65.94,0,0,1-5.78-10.68l-.12-.28s.19.21,0,0a.44.44,0,0,1-.08-.2l-2.51,1.46-.23-.29,1.3-2.26a64,64,0,0,1-7.17-.84,29.88,29.88,0,0,1-11.35-4.81c-8.72-5.74-16-13.42-24.49-19.48-7.59-5.42-17-10.47-26.67-10-4.5.22-8.86,1.9-11.66,5.55-2.55,3.32-3.4,8-1.06,11.68,2.45,3.87,8.07,5.2,11.34,1.49,3-3.4.69-9.2-4-9.27-1.93,0-1.93,3,0,3a2.61,2.61,0,0,1,2.37,2.73,3.25,3.25,0,0,1-3,2.74c-3.7.52-5.69-3.9-5-7A10.21,10.21,0,0,1,598.51,7c4-1.16,8.35-.53,12.31.6,8.3,2.36,15.53,7.42,22.15,12.81,6.85,5.59,13.31,12,21,16.47a30.27,30.27,0,0,0,10.79,3.88c2.32.37,4.66.64,7,.79a1.51,1.51,0,0,0,1.3-2.25,3.92,3.92,0,0,0-.25-.32,1.51,1.51,0,0,0-2.5,1.46,12,12,0,0,0,1.06,2.45c.78,1.69,1.63,3.37,2.53,5,2,3.57,4.35,7.74,7.91,10s6.95-.08,9.33-2.86a60.51,60.51,0,0,0,6.93-10.94c.3-.56.59-1.12.92-1.66l.18-.3c.16-.26,0,.06-.06.07.35,0-1,.24-1,.35a4.94,4.94,0,0,0,1.18.23,23.24,23.24,0,0,0,8.78-.66,40.32,40.32,0,0,0,14.56-7.39C734.82,25.6,745.6,13.15,760.77,9c6.38-1.75,15.11-2,18.58,4.86,1.37,2.69,1.14,6.32-1.45,8.21a3.93,3.93,0,0,1-4,.47,2.84,2.84,0,0,1-1.88-2.8,2.6,2.6,0,0,1,2.36-2.36c1.92,0,1.93-3,0-3Z"/><path class="cls-1" d="M115.37,24.21a3,3,0,0,1-.94-3.2c.13-.35-.36.1.11-.11a4.36,4.36,0,0,1,.87-.26,5.18,5.18,0,0,1,1.8,0,6.38,6.38,0,0,1,5.06,4.21,7.29,7.29,0,0,1-2,7,8.63,8.63,0,0,1-7.52,2.43c-6.33-.91-10.07-6.7-11.12-12.57-.15-.83-.23-1.67-.39-2.5a4.44,4.44,0,0,0-.08-.48c0-.4-.09-.8-.11-1.21a11.34,11.34,0,0,1,1.12-5.9A11.35,11.35,0,0,1,109,6.15a26.15,26.15,0,0,1,14.38-.48A22.48,22.48,0,0,1,133.73,12c6.41,6.67,9.72,16,12,24.75a111,111,0,0,1,3.73,22.86,116.46,116.46,0,0,1-7.69,47.06c-6.56,16.81-18.52,32.78-35.37,40.3a22.46,22.46,0,0,1-6.11,2c-.23,0-1.37.13-.53,0l-.44,0c-.67.07-1.35.12-2,.15-4.65.2-9.72-.28-13.66-3a78.92,78.92,0,0,1-21.9-23.16c-9.8-15.55-14.73-34-15.62-52.27a101.15,101.15,0,0,1,1-20.41c1.49-9.48,3.6-19.13,7.76-27.83,3.66-7.64,9.32-15,18-17a26.27,26.27,0,0,1,14.09.7,11.16,11.16,0,0,1,6.66,5.55,11.47,11.47,0,0,1,1,5.9c0,.36-.06.72-.1,1.08.06-.51-.06.31-.1.5-.19,1-.29,2.12-.51,3.17-1.26,5.78-5.35,11.45-11.71,11.86a8.46,8.46,0,0,1-7.25-3,7,7,0,0,1-1.39-7,6.53,6.53,0,0,1,5-3.72,5.17,5.17,0,0,1,1.71.05,3.71,3.71,0,0,1,.86.26c.4.2.14.06.06,0,.71,1.06-.09,2.65-.88,3.36-1.44,1.29.69,3.4,2.12,2.12a5.91,5.91,0,0,0,1.91-3.72c.16-1.35-.08-3.37-1.36-4.13a8.25,8.25,0,0,0-7.67,0c-5.58,2.69-6.51,9.58-2.92,14.3,4,5.32,11.51,5.63,16.87,2.13a17.1,17.1,0,0,0,6.22-7.59,29.8,29.8,0,0,0,1.78-7c.77-4.5.33-9-2.72-12.69C91.8,4.5,87.61,3,83.59,2.36A28.28,28.28,0,0,0,68,4c-9.2,4-14.59,13.41-18,22.38a114.65,114.65,0,0,0-6.54,28.86,108.6,108.6,0,0,0,.35,23.84A116.91,116.91,0,0,0,51,108.34,92.41,92.41,0,0,0,68.34,136.7a82,82,0,0,0,13.48,11.9c4.4,3.1,10.11,3.8,15.37,3.59q1.07,0,2.13-.15c.83-.08.82,0,1.62-.16a26.61,26.61,0,0,0,7-2.33,58.84,58.84,0,0,0,12-7.41,75.3,75.3,0,0,0,19.82-23.88,105.23,105.23,0,0,0,10-27.82,126,126,0,0,0,2.84-25.68,109.8,109.8,0,0,0-2.7-23.54c-2.15-10.09-5.36-20.57-11.81-28.8a27.57,27.57,0,0,0-10.87-8.59,28.33,28.33,0,0,0-15.63-1.39c-4,.65-8,2.28-10.59,5.48A13.83,13.83,0,0,0,98,15.86a20,20,0,0,0,.39,4.57,28.72,28.72,0,0,0,2,7.47,16.64,16.64,0,0,0,6.46,7.35c5.54,3.3,12.83,2.62,16.69-2.84,3.45-4.89,2-11.66-3.65-14.08-2.2-.95-5.3-1.24-7.39.23-1.15.81-1.37,2.75-1.21,4.05a5.84,5.84,0,0,0,1.91,3.72c1.43,1.28,3.56-.83,2.12-2.12Z"/><path class="cls-2" d="M99.17,137.87a7.82,7.82,0,0,1-6.27-.34c-4.31-2.3-7.66-8.5-4.39-20.49C90.07,111.32,95.7,61,95.7,61h1.44l.62,4.37c1.4,12.37,5.41,47,6.69,51.69,3.31,12.13-.15,18.33-4.54,20.57Z"/><path class="cls-2" d="M101.31,59.89s5.94,41.59,16.33,52c0,0,6,7.43,11.89-1.48s-7.43-17.83-7.43-17.83A52.79,52.79,0,0,1,101.31,59.89Z"/><path class="cls-2" d="M91,59.89s-5.94,41.59-16.34,52c0,0-5.94,7.43-11.88-1.48s7.43-17.83,7.43-17.83A52.83,52.83,0,0,0,91,59.89Z"/><path class="cls-2" d="M105.76,54S119.13,82.17,131,85.14c0,0,8.91,3,8.91-5.94s-32.67-26.73-32.67-26.73Z"/><path class="cls-2" d="M87.94,54S74.58,82.17,62.69,85.14c0,0-8.91,3-8.91-5.94S86.46,52.47,86.46,52.47Z"/><path class="cls-2" d="M110.22,49.5s12.27,12.27,27.68,4.14a8.66,8.66,0,0,0,4.23-4.74c.87-2.52.54-5.86-5.18-8.32C126.56,36.13,110.22,49.5,110.22,49.5Z"/><path class="cls-2" d="M84.57,49.5S72.3,61.77,56.89,53.64a8.66,8.66,0,0,1-4.23-4.74c-.87-2.52-.54-5.86,5.18-8.32C68.23,36.13,84.57,49.5,84.57,49.5Z"/><path class="cls-1" d="M186.42,11A5.65,5.65,0,0,0,181.07,17c.24,3.25,3.43,5.49,6.53,5.46,3.44,0,6.21-2.74,7.2-5.88a10.67,10.67,0,0,0-2.05-9.52C187.85.69,179.06.74,172,2.68c-7.66,2.1-14.49,6.39-20.73,11.2C144.49,19.1,138.35,25.09,131.38,30c-4.62,3.27-9.74,5.79-15.42,6.41a14.36,14.36,0,0,1-4.85-.14,2,2,0,0,0-2.39.73,32.46,32.46,0,0,0-2.06,3.69c-1.12,2.07-2.28,4.11-3.59,6.06a18.49,18.49,0,0,1-4.22,4.85,4.45,4.45,0,0,1-1.83.83,2.7,2.7,0,0,1-1.77-.61,15.85,15.85,0,0,1-4.08-4.47,65.53,65.53,0,0,1-5.78-10.68l-.12-.28s.19.21,0,.05-.07-.16-.08-.2L82.7,37.72l-.23-.3,1.3-2.25a66.44,66.44,0,0,1-7.17-.85,29.86,29.86,0,0,1-11.35-4.8C56.53,23.78,49.25,16.1,40.76,10,33.17,4.61,23.71-.44,14.09,0,9.59.25,5.23,1.94,2.43,5.59c-2.55,3.32-3.4,8-1.06,11.68,2.45,3.86,8.07,5.19,11.34,1.48,3-3.4.69-9.2-4-9.27-1.93,0-1.93,3,0,3a2.61,2.61,0,0,1,2.37,2.73,3.25,3.25,0,0,1-3,2.74c-3.7.52-5.69-3.9-5-7a10.23,10.23,0,0,1,7.39-7.37c4-1.16,8.35-.53,12.31.6C31.12,6.57,38.35,11.63,45,17c6.85,5.59,13.31,12,21,16.47a30.48,30.48,0,0,0,10.79,3.89c2.32.36,4.66.64,7,.79a1.52,1.52,0,0,0,1.3-2.26l-.25-.32a1.51,1.51,0,0,0-2.5,1.46,11.79,11.79,0,0,0,1.06,2.45c.78,1.7,1.63,3.37,2.53,5,2,3.57,4.35,7.74,7.91,10s7-.08,9.33-2.86a60.51,60.51,0,0,0,6.93-10.94c.3-.56.59-1.12.92-1.66l.18-.3c.16-.26,0,.06-.06.07.35,0-1,.24-1,.36a5,5,0,0,0,1.18.22,23.24,23.24,0,0,0,8.78-.66,40.32,40.32,0,0,0,14.56-7.39c12.15-9.15,22.93-21.6,38.1-25.74,6.38-1.74,15.11-2,18.58,4.86,1.37,2.69,1.14,6.32-1.45,8.21a3.93,3.93,0,0,1-4,.48,2.85,2.85,0,0,1-1.88-2.81A2.6,2.6,0,0,1,186.42,14c1.92,0,1.93-3,0-3Z"/><path class="cls-2" d="M198.64,138.3a7.8,7.8,0,0,1-6.26-.34c-4.32-2.3-7.66-8.51-4.39-20.5,1.56-5.71,7.19-56.06,7.19-56.06h1.43l.62,4.38c1.41,12.37,5.42,47,6.69,51.68,3.31,12.13-.15,18.34-4.54,20.58Z"/><path class="cls-1" d="M311.37,25.21a3,3,0,0,1-.94-3.2c.13-.35-.36.1.11-.11a4.36,4.36,0,0,1,.87-.26,5.18,5.18,0,0,1,1.8,0,6.38,6.38,0,0,1,5.06,4.21,7.29,7.29,0,0,1-2,7,8.63,8.63,0,0,1-7.52,2.43c-6.33-.91-10.07-6.7-11.12-12.57-.15-.83-.23-1.67-.39-2.5a4.44,4.44,0,0,0-.08-.48c-.05-.4-.09-.8-.11-1.21a11.34,11.34,0,0,1,1.12-5.9A11.35,11.35,0,0,1,305,7.15a26.15,26.15,0,0,1,14.38-.48A22.48,22.48,0,0,1,329.73,13c6.41,6.67,9.72,16,12,24.75a111,111,0,0,1,3.73,22.86,116.46,116.46,0,0,1-7.69,47.06c-6.56,16.81-18.52,32.78-35.37,40.3a22.46,22.46,0,0,1-6.11,2c-.23,0-1.37.13-.53,0l-.44,0c-.67.07-1.35.12-2,.15-4.65.2-9.72-.28-13.66-3a78.92,78.92,0,0,1-21.9-23.16c-9.8-15.55-14.73-34-15.62-52.27a101.15,101.15,0,0,1,1-20.41c1.49-9.48,3.6-19.13,7.76-27.83,3.66-7.64,9.32-15,18-17a26.27,26.27,0,0,1,14.09.7,11.16,11.16,0,0,1,6.66,5.55,11.47,11.47,0,0,1,1,5.9c0,.36-.06.72-.1,1.08.06-.51-.06.31-.1.5-.19,1-.29,2.12-.51,3.17-1.26,5.78-5.35,11.45-11.71,11.86a8.46,8.46,0,0,1-7.25-3,7,7,0,0,1-1.39-7,6.53,6.53,0,0,1,5-3.72,5.17,5.17,0,0,1,1.71.05,3.71,3.71,0,0,1,.86.26c.4.2.14.06.06,0,.71,1.06-.09,2.65-.88,3.36-1.44,1.29.69,3.4,2.12,2.12a5.91,5.91,0,0,0,1.91-3.72c.16-1.35-.08-3.37-1.36-4.13a8.25,8.25,0,0,0-7.67,0c-5.58,2.69-6.51,9.58-2.92,14.3,4.05,5.32,11.51,5.63,16.87,2.13a17.1,17.1,0,0,0,6.22-7.59,29.8,29.8,0,0,0,1.78-7c.77-4.5.33-9-2.72-12.69C287.8,5.5,283.61,4,279.59,3.36A28.28,28.28,0,0,0,264,5c-9.2,4-14.59,13.41-18,22.38a114.65,114.65,0,0,0-6.54,28.86,108.6,108.6,0,0,0,.35,23.84A116.91,116.91,0,0,0,247,109.34a92.41,92.41,0,0,0,17.34,28.36,82,82,0,0,0,13.48,11.9c4.4,3.1,10.11,3.8,15.37,3.59q1.06,0,2.13-.15c.83-.08.82,0,1.62-.16a26.61,26.61,0,0,0,7-2.33,58.84,58.84,0,0,0,12-7.41,75.3,75.3,0,0,0,19.82-23.88,105.23,105.23,0,0,0,10-27.82,126,126,0,0,0,2.84-25.68,109.8,109.8,0,0,0-2.7-23.54c-2.15-10.09-5.36-20.57-11.81-28.8a27.57,27.57,0,0,0-10.87-8.59,28.33,28.33,0,0,0-15.63-1.39c-4,.65-8,2.28-10.59,5.48A13.83,13.83,0,0,0,294,16.86a20,20,0,0,0,.39,4.57,28.72,28.72,0,0,0,2,7.47,16.64,16.64,0,0,0,6.46,7.35c5.54,3.3,12.83,2.62,16.69-2.84,3.45-4.89,2-11.66-3.65-14.08-2.2-.95-5.3-1.24-7.39.23-1.15.81-1.37,2.75-1.21,4.05a5.84,5.84,0,0,0,1.91,3.72c1.43,1.28,3.56-.83,2.12-2.12Z"/><path class="cls-2" d="M295.17,138.87a7.82,7.82,0,0,1-6.27-.34c-4.31-2.3-7.66-8.5-4.39-20.49C286.07,112.32,291.7,62,291.7,62h1.44l.62,4.37c1.4,12.37,5.41,47,6.69,51.69,3.31,12.13-.15,18.33-4.54,20.57Z"/><path class="cls-2" d="M297.31,60.89s5.94,41.59,16.33,52c0,0,5.95,7.43,11.89-1.48s-7.43-17.83-7.43-17.83A52.79,52.79,0,0,1,297.31,60.89Z"/><path class="cls-2" d="M287,60.89s-5.94,41.59-16.34,52c0,0-5.94,7.43-11.88-1.48s7.43-17.83,7.43-17.83A52.83,52.83,0,0,0,287,60.89Z"/><path class="cls-2" d="M301.76,55S315.13,83.17,327,86.14c0,0,8.91,3,8.91-5.94s-32.67-26.73-32.67-26.73Z"/><path class="cls-2" d="M283.94,55s-13.36,28.22-25.25,31.19c0,0-8.91,3-8.91-5.94s32.68-26.73,32.68-26.73Z"/><path class="cls-2" d="M306.22,50.5s12.27,12.27,27.68,4.14a8.66,8.66,0,0,0,4.23-4.74c.87-2.52.54-5.86-5.18-8.32C322.56,37.13,306.22,50.5,306.22,50.5Z"/><path class="cls-2" d="M280.57,50.5s-12.27,12.27-27.68,4.14a8.66,8.66,0,0,1-4.23-4.74c-.87-2.52-.54-5.86,5.18-8.32C264.23,37.13,280.57,50.5,280.57,50.5Z"/><path class="cls-1" d="M382.42,12A5.65,5.65,0,0,0,377.07,18c.24,3.25,3.43,5.49,6.53,5.46,3.44,0,6.21-2.74,7.2-5.88a10.67,10.67,0,0,0-2.05-9.52c-4.9-6.38-13.69-6.33-20.78-4.39-7.66,2.1-14.49,6.39-20.73,11.2C340.49,20.1,334.35,26.09,327.38,31c-4.62,3.27-9.74,5.79-15.42,6.41a14.36,14.36,0,0,1-4.85-.14,2,2,0,0,0-2.39.73,32.46,32.46,0,0,0-2.06,3.69c-1.12,2.07-2.28,4.11-3.59,6.06a18.49,18.49,0,0,1-4.22,4.85,4.45,4.45,0,0,1-1.83.83,2.7,2.7,0,0,1-1.77-.61,15.85,15.85,0,0,1-4.08-4.47,65.53,65.53,0,0,1-5.78-10.68l-.12-.28s.19.21,0,.05-.07-.16-.08-.2l-2.51,1.46-.23-.3,1.3-2.25a66.44,66.44,0,0,1-7.17-.85,29.86,29.86,0,0,1-11.35-4.8c-8.72-5.74-16-13.42-24.49-19.49-7.59-5.42-17-10.47-26.67-10-4.5.22-8.86,1.91-11.66,5.56-2.55,3.32-3.4,8-1.06,11.68,2.45,3.86,8.07,5.19,11.34,1.48,3-3.4.69-9.2-4-9.27-1.93,0-1.93,3,0,3a2.61,2.61,0,0,1,2.37,2.73,3.25,3.25,0,0,1-3,2.74c-3.7.52-5.69-3.9-5-7a10.23,10.23,0,0,1,7.39-7.37c4-1.16,8.35-.53,12.31.6C227.12,7.57,234.35,12.63,241,18c6.85,5.59,13.31,12,21,16.47a30.48,30.48,0,0,0,10.79,3.89c2.32.36,4.66.64,7,.79a1.52,1.52,0,0,0,1.3-2.26l-.25-.32a1.51,1.51,0,0,0-2.5,1.46,11.79,11.79,0,0,0,1.06,2.45c.78,1.7,1.63,3.37,2.53,5,2,3.57,4.35,7.74,7.91,10s6.95-.08,9.33-2.86a60.51,60.51,0,0,0,6.93-10.94c.3-.56.59-1.12.92-1.66l.18-.3c.16-.26,0,.06-.06.07.35,0-1,.24-1,.36a5,5,0,0,0,1.18.22,23.24,23.24,0,0,0,8.78-.66,40.32,40.32,0,0,0,14.56-7.39c12.15-9.15,22.93-21.6,38.1-25.74,6.38-1.74,15.11-2,18.58,4.86,1.37,2.69,1.14,6.32-1.45,8.21a3.93,3.93,0,0,1-4,.48,2.85,2.85,0,0,1-1.88-2.81A2.6,2.6,0,0,1,382.42,15c1.92,0,1.93-3,0-3Z"/><path class="cls-2" d="M214.57,12.27a1.56,1.56,0,0,1,2.05-1.52c3.86,1.24,10.9,5,10.9,15.75,0,11.14-5.85,16.43-8.78,18.38a16.06,16.06,0,0,0-4.9,5c-2.24,3.72-4.08,9.71.31,16.74,0,0,5.94,8.91,8.91,8.91v3S203.75,77,200.78,62.15s-1.48-17.83-1.48-17.83S214,36.32,213,22.83a11.85,11.85,0,0,1,.45-4.47A21.69,21.69,0,0,0,214.57,12.27Z"/><path class="cls-2" d="M175.12,12.27a1.57,1.57,0,0,0-2.05-1.52c-3.86,1.24-10.9,5-10.9,15.75,0,11.14,5.85,16.43,8.77,18.38a16,16,0,0,1,4.9,5c2.24,3.72,4.09,9.71-.3,16.74,0,0-5.94,8.91-8.91,8.91v3S185.93,77,188.9,62.15s1.49-17.83,1.49-17.83-14.69-8-13.68-21.49a11.85,11.85,0,0,0-.46-4.47A22,22,0,0,1,175.12,12.27Z"/><path class="cls-2" d="M194.84,29.47c-3,0-4.45-4.45-4.45-4.45H183s4.46,19.3,13.37,16.33S206.72,25,206.72,25H199.3S197.81,29.47,194.84,29.47Z"/><path class="cls-2" d="M394.64,139.3a7.8,7.8,0,0,1-6.26-.34c-4.32-2.3-7.66-8.51-4.39-20.5,1.56-5.71,7.19-56.06,7.19-56.06h1.43l.62,4.38c1.41,12.37,5.42,47,6.69,51.68,3.31,12.13-.15,18.34-4.54,20.58Z"/><path class="cls-1" d="M507.37,26.21a3,3,0,0,1-.94-3.2c.13-.35-.36.1.11-.11a4.36,4.36,0,0,1,.87-.26,5.18,5.18,0,0,1,1.8,0,6.38,6.38,0,0,1,5.06,4.21,7.29,7.29,0,0,1-2,7,8.63,8.63,0,0,1-7.52,2.43c-6.33-.91-10.07-6.7-11.12-12.57-.15-.83-.23-1.67-.39-2.5a4.44,4.44,0,0,0-.08-.48c-.05-.4-.09-.8-.11-1.21a11.34,11.34,0,0,1,1.12-5.9A11.35,11.35,0,0,1,501,8.15a26.15,26.15,0,0,1,14.38-.48A22.48,22.48,0,0,1,525.73,14c6.41,6.67,9.72,16,12,24.75a111,111,0,0,1,3.73,22.86,116.46,116.46,0,0,1-7.69,47.06c-6.56,16.81-18.52,32.78-35.37,40.3a22.46,22.46,0,0,1-6.11,2c-.23,0-1.37.13-.53,0l-.44,0c-.67.07-1.35.12-2,.15-4.65.2-9.72-.28-13.66-3a78.92,78.92,0,0,1-21.9-23.16c-9.8-15.55-14.73-34-15.62-52.27a101.15,101.15,0,0,1,1-20.41c1.49-9.48,3.6-19.13,7.76-27.83,3.66-7.64,9.32-15,18-17a26.27,26.27,0,0,1,14.09.7,11.16,11.16,0,0,1,6.66,5.55,11.47,11.47,0,0,1,1,5.9c0,.36-.06.72-.1,1.08.06-.51-.06.31-.1.5-.19,1-.29,2.12-.51,3.17-1.26,5.78-5.35,11.45-11.71,11.86a8.46,8.46,0,0,1-7.25-3,7,7,0,0,1-1.39-7,6.53,6.53,0,0,1,5-3.72,5.17,5.17,0,0,1,1.71.05,3.71,3.71,0,0,1,.86.26c.4.2.14.06.06,0,.71,1.06-.09,2.65-.88,3.36-1.44,1.29.69,3.4,2.12,2.12a5.91,5.91,0,0,0,1.91-3.72c.16-1.35-.08-3.37-1.36-4.13a8.25,8.25,0,0,0-7.67,0c-5.58,2.69-6.51,9.58-2.92,14.3,4.05,5.32,11.51,5.63,16.87,2.13a17.1,17.1,0,0,0,6.22-7.59,29.8,29.8,0,0,0,1.78-7c.77-4.5.33-9-2.72-12.69C483.8,6.5,479.61,5,475.59,4.36A28.28,28.28,0,0,0,460,6c-9.2,4-14.59,13.41-18,22.38a114.65,114.65,0,0,0-6.54,28.86,108.6,108.6,0,0,0,.35,23.84A116.91,116.91,0,0,0,443,110.34a92.41,92.41,0,0,0,17.34,28.36,82,82,0,0,0,13.48,11.9c4.4,3.1,10.11,3.8,15.37,3.59q1.06,0,2.13-.15c.83-.08.82,0,1.62-.16a26.61,26.61,0,0,0,7-2.33,58.84,58.84,0,0,0,12-7.41,75.3,75.3,0,0,0,19.82-23.88,105.23,105.23,0,0,0,10-27.82,126,126,0,0,0,2.84-25.68,109.8,109.8,0,0,0-2.7-23.54c-2.15-10.09-5.36-20.57-11.81-28.8a27.57,27.57,0,0,0-10.87-8.59,28.33,28.33,0,0,0-15.63-1.39c-4,.65-8,2.28-10.59,5.48A13.83,13.83,0,0,0,490,17.86a20,20,0,0,0,.39,4.57,28.72,28.72,0,0,0,2,7.47,16.64,16.64,0,0,0,6.46,7.35c5.54,3.3,12.83,2.62,16.69-2.84,3.45-4.89,2-11.66-3.65-14.08-2.2-.95-5.3-1.24-7.39.23-1.15.81-1.37,2.75-1.21,4.05a5.84,5.84,0,0,0,1.91,3.72c1.43,1.28,3.56-.83,2.12-2.12Z"/><path class="cls-2" d="M491.17,139.87a7.82,7.82,0,0,1-6.27-.34c-4.31-2.3-7.66-8.5-4.39-20.49C482.07,113.32,487.7,63,487.7,63h1.44l.62,4.37c1.4,12.37,5.41,47,6.69,51.69,3.31,12.13-.15,18.33-4.54,20.57Z"/><path class="cls-2" d="M493.31,61.89s5.94,41.59,16.33,52c0,0,6,7.43,11.89-1.48s-7.43-17.83-7.43-17.83A52.79,52.79,0,0,1,493.31,61.89Z"/><path class="cls-2" d="M483,61.89s-5.94,41.59-16.34,52c0,0-5.94,7.43-11.88-1.48s7.43-17.83,7.43-17.83A52.83,52.83,0,0,0,483,61.89Z"/><path class="cls-2" d="M497.76,56S511.13,84.17,523,87.14c0,0,8.91,3,8.91-5.94s-32.67-26.73-32.67-26.73Z"/><path class="cls-2" d="M479.94,56s-13.36,28.22-25.25,31.19c0,0-8.91,3-8.91-5.94s32.68-26.73,32.68-26.73Z"/><path class="cls-2" d="M502.22,51.5s12.27,12.27,27.68,4.14a8.66,8.66,0,0,0,4.23-4.74c.87-2.52.54-5.86-5.18-8.32C518.56,38.13,502.22,51.5,502.22,51.5Z"/><path class="cls-2" d="M476.57,51.5s-12.27,12.27-27.68,4.14a8.66,8.66,0,0,1-4.23-4.74c-.87-2.52-.54-5.86,5.18-8.32C460.23,38.13,476.57,51.5,476.57,51.5Z"/><path class="cls-1" d="M578.42,13A5.65,5.65,0,0,0,573.07,19c.24,3.25,3.43,5.49,6.53,5.46,3.44,0,6.21-2.74,7.2-5.88a10.67,10.67,0,0,0-2-9.52c-4.9-6.38-13.69-6.33-20.78-4.39-7.66,2.1-14.49,6.39-20.73,11.2C536.49,21.1,530.35,27.09,523.38,32c-4.62,3.27-9.74,5.79-15.42,6.41a14.36,14.36,0,0,1-4.85-.14,2,2,0,0,0-2.39.73,32.46,32.46,0,0,0-2.06,3.69c-1.12,2.07-2.28,4.11-3.59,6.06a18.49,18.49,0,0,1-4.22,4.85,4.45,4.45,0,0,1-1.83.83,2.7,2.7,0,0,1-1.77-.61,15.85,15.85,0,0,1-4.08-4.47,65.53,65.53,0,0,1-5.78-10.68l-.12-.28s.19.21,0,.05-.07-.16-.08-.2l-2.51,1.46-.23-.3,1.3-2.25a66.44,66.44,0,0,1-7.17-.85,29.86,29.86,0,0,1-11.35-4.8c-8.72-5.74-16-13.42-24.49-19.49-7.59-5.42-17.05-10.47-26.67-10-4.5.22-8.86,1.91-11.66,5.56-2.55,3.32-3.4,8-1.06,11.68,2.45,3.86,8.07,5.19,11.34,1.48,3-3.4.69-9.2-3.95-9.27-1.93,0-1.93,3,0,3a2.61,2.61,0,0,1,2.37,2.73,3.25,3.25,0,0,1-3,2.74c-3.7.52-5.69-3.9-5-7a10.23,10.23,0,0,1,7.39-7.37c4-1.16,8.35-.53,12.31.6C423.12,8.57,430.35,13.63,437,19c6.85,5.59,13.31,12,21,16.47a30.48,30.48,0,0,0,10.79,3.89c2.32.36,4.66.64,7,.79a1.52,1.52,0,0,0,1.3-2.26l-.25-.32a1.51,1.51,0,0,0-2.5,1.46,11.79,11.79,0,0,0,1.06,2.45c.78,1.7,1.63,3.37,2.53,5,2,3.57,4.35,7.74,7.91,10s6.95-.08,9.33-2.86a60.51,60.51,0,0,0,6.93-10.94c.3-.56.59-1.12.92-1.66l.18-.3c.16-.26,0,.06-.06.07.35,0-1,.24-1,.36a5,5,0,0,0,1.18.22,23.24,23.24,0,0,0,8.78-.66,40.32,40.32,0,0,0,14.56-7.39c12.15-9.15,22.93-21.6,38.1-25.74,6.38-1.74,15.11-2,18.58,4.86,1.37,2.69,1.14,6.32-1.45,8.21a3.93,3.93,0,0,1-4,.48,2.85,2.85,0,0,1-1.88-2.81A2.6,2.6,0,0,1,578.42,16c1.92,0,1.93-3,0-3Z"/><path class="cls-2" d="M410.57,13.27a1.56,1.56,0,0,1,2.05-1.52c3.86,1.24,10.9,5,10.9,15.75,0,11.14-5.85,16.43-8.78,18.38a16.06,16.06,0,0,0-4.9,5c-2.24,3.72-4.08,9.71.31,16.74,0,0,5.94,8.91,8.91,8.91v3S399.75,78,396.78,63.15s-1.48-17.83-1.48-17.83S410,37.32,409,23.83a11.85,11.85,0,0,1,.45-4.47A21.69,21.69,0,0,0,410.57,13.27Z"/><path class="cls-2" d="M371.12,13.27a1.57,1.57,0,0,0-2.05-1.52c-3.86,1.24-10.9,5-10.9,15.75,0,11.14,5.85,16.43,8.77,18.38a16,16,0,0,1,4.9,5c2.24,3.72,4.09,9.71-.3,16.74,0,0-5.94,8.91-8.91,8.91v3S381.93,78,384.9,63.15s1.49-17.83,1.49-17.83-14.69-8-13.68-21.49a11.85,11.85,0,0,0-.46-4.47A22,22,0,0,1,371.12,13.27Z"/><path class="cls-2" d="M390.84,30.47c-3,0-4.45-4.45-4.45-4.45H379s4.46,19.3,13.37,16.33S402.72,26,402.72,26H395.3S393.81,30.47,390.84,30.47Z"/><path class="cls-2" d="M591.27,140.14a7.8,7.8,0,0,1-6.26-.34c-4.32-2.3-7.66-8.51-4.39-20.5,1.56-5.72,7.19-56.06,7.19-56.06h1.43l.62,4.38c1.41,12.37,5.42,47,6.69,51.68,3.31,12.13-.15,18.34-4.54,20.57Z"/><path class="cls-2" d="M607.2,14.11a1.56,1.56,0,0,1,2-1.52c3.86,1.24,10.9,5,10.9,15.75,0,11.14-5.85,16.43-8.78,18.38a16.06,16.06,0,0,0-4.9,5c-2.24,3.72-4.08,9.71.31,16.74,0,0,5.94,8.91,8.91,8.91v3S596.38,78.84,593.41,64s-1.48-17.83-1.48-17.83,14.68-8,13.68-21.49a11.85,11.85,0,0,1,.45-4.47A21.69,21.69,0,0,0,607.2,14.11Z"/><path class="cls-2" d="M567.75,14.11a1.57,1.57,0,0,0-2-1.52c-3.86,1.24-10.9,5-10.9,15.75,0,11.14,5.85,16.43,8.77,18.38a16,16,0,0,1,4.9,5c2.24,3.72,4.09,9.71-.3,16.74,0,0-5.94,8.91-8.91,8.91v3s19.3-1.48,22.27-16.33S583,46.16,583,46.16s-14.69-8-13.68-21.49a11.85,11.85,0,0,0-.46-4.47A22,22,0,0,1,567.75,14.11Z"/><path class="cls-2" d="M587.47,31.31c-3,0-4.45-4.45-4.45-4.45h-7.43s4.46,19.3,13.37,16.33,10.39-16.33,10.39-16.33h-7.42S590.44,31.31,587.47,31.31Z"/></g></g></svg>