<svg xmlns="http://www.w3.org/2000/svg" viewBox="0 0 5990.52 3042.52"><defs><style>.cls-1{fill:#fff;}</style></defs><title>Fichier 4</title><g id="Calque_2" data-name="Calque 2"><g id="Calque_3" data-name="Calque 3"><path class="cls-1" d="M5907.39,2777.06H5891.3v-.18H5770V2631.5h115.11v90.7H5820V2682h13.17v26.34h35.11v-62.18h-87.05v5.78h-1v95.82h1v9.58H5918V2593.46H5770V2452.29h115.11V2543H5820v-40.23h13.17v26.33h35.11v-62.17h-87.05v5.77h-1v95.83h1v9.58H5918V2414.25H5770V2268.69h114.38v90.7h-65.1v-40.23h13.17v26.33h35.11v-62.18h-87.05v7.78h-1v95.83h1v5.58h136.79V2230.65H5771V2085.81h114.11v90.71H5820v-40.23h13.17v26.33h35.11v-62.18h-87.05v111.19H5918V2047.78H5771V1902.21h114.11v90.71H5820v-40.23h13.17V1979h35.11v-62.18h-87.05V2028H5918V1864.18H5771V1723h114.11v90.7H5820v-40.23h13.17v26.34h35.11v-62.18h-87.05v111.18H5918V1685H5771V1539.4h113.38v90.7h-65.1v-40.23h13.17v26.33h35.11V1554h-87.05v111.18h136.79V1501.36H5771v-144.1h114.11V1448H5820v-40.23h13.17v26.33h35.11v-62.17h-87.05v111.18H5918V1319.22H5771V1173.66h114.11v90.7H5820v-40.23h13.17v26.33h35.11v-62.17h-87.05v111.18H5918V1135.62H5771V994.44h114.11v90.71H5820v-40.23h13.17v26.33h35.11v-62.18h-87.05v111.19H5918V956.41H5771V810.84h113.38v90.71h-65.1V861.31h13.17v26.34h35.11V825.47h-87.05V936.66h136.79V772.81H5771V632h114.11v90.71H5820V682.44h13.17v26.34h35.11V646.6h-87.05V757.79H5918V593.94H5771V448.37h114.11v90.7H5820V498.84h13.17v26.34h35.11V463h-87.05V574.19H5918V410.33H5771V269.16h114.11v90.7H5820V319.63h13.17V346h35.11V283.79h-87.05V395H5918V231.12H5771.22V117.44h90.7v65.1h-40.23V169.37H5848V134.26h-62.17v87.05H5897V84.52H5733.18v147H5587.62V117.44h90.7v65.1h-40.23V169.37h26.33V134.26h-62.17v87.05h111.18V84.52H5549.58v147H5408.4V117.44h90.71v65.1h-40.23V169.37h26.33V134.26H5423v87.05h111.19V84.52H5370.37v147H5224.8V118.17h90.7v65.1h-40.23V170.1h26.34V135h-62.18v87h111.19V85.25H5186.76v146.3H5041.93V117.44h90.7v65.1H5092.4V169.37h26.34V134.26h-62.18v87.05h111.19V84.52H5003.89v147H4858.33V117.44H4949v65.1H4908.8V169.37h26.33V134.26H4873v87.05h111.18V84.52H4820.29v147H4679.12V117.44h90.7v65.1h-40.23V169.37h26.33V134.26h-62.17v87.05h111.18V84.52H4641.08v147H4495.51V118.17h90.71v65.1H4546V170.1h26.33V135h-62.18v87h111.19V85.25H4457.48v146.3h-144.1V117.44h90.7v65.1h-40.23V169.37h26.33V134.26H4328v87.05h111.19V84.52H4275.34v147H4129.77V117.44h90.71v65.1h-40.23V169.37h26.33V134.26H4144.4v87.05h111.19V84.52H4091.74v147H3950.56V117.44h90.7v65.1H4001V169.37h26.34V134.26h-62.18v87.05h111.19V84.52H3912.52v147H3767V118.17h90.7v65.1h-40.23V170.1h26.33V135h-62.17v87h111.18V85.25H3728.92v146.3H3584.09V117.44h90.7v65.1h-40.23V169.37h26.33V134.26h-62.17v87.05H3709.9V84.52H3546.05v147H3400.49V117.44h90.7v65.1H3451V169.37h26.33V134.26h-62.17v87.05H3526.3V84.52H3362.45v147H3221.27V117.44H3312v65.1h-40.23V169.37h26.33V134.26H3235.9v87.05h111.19V84.52H3183.24v147H3037.67V118.17h90.71v65.1h-40.24V170.1h26.34V135H3052.3v87h111.19V85.25H2999.63v146.3H2858.22V117.44h90.7v65.1h-40.23V169.37H2935V134.26h-62.17v87.05H2984V84.52H2820.18v147H2674.62V117.44h90.7v65.1h-40.23V169.37h26.33V134.26h-62.17v87.05h111.18V84.52H2636.58v147H2495.4V117.44h90.71v65.1h-40.23V169.37h26.33V134.26H2510v87.05h111.19V84.52H2457.37v147H2311.8V118.17h90.7v65.1h-40.23V170.1h26.34V135h-62.18v87h111.19V85.25H2273.76v146.3H2128.93V117.44h90.7v65.1H2179.4V169.37h26.34V134.26h-62.18v87.05h111.19V84.52H2090.89v147H1945.33V117.44H2036v65.1H1995.8V169.37h26.33V134.26H1960v87.05h111.18V84.52H1907.29v147H1766.12V117.44h90.7v65.1h-40.23V169.37h26.33V134.26h-62.17v87.05h111.18V84.52H1728.08v147H1582.51V118.17h90.71v65.1H1633V170.1h26.33V135h-62.18v87h111.19V85.25H1544.48v146.3h-144.1V117.44h90.7v65.1h-40.23V169.37h26.33V134.26H1415v87.05h111.19V84.52H1362.34v147H1216.77V117.44h90.71v65.1h-40.23V169.37h26.33V134.26H1231.4v87.05h111.19V84.52H1178.74v147H1037.56V117.44h90.7v65.1H1088V169.37h26.34V134.26h-62.18v87.05h111.19V84.52H999.52v147H854V118.17h90.7v65.1H904.43V170.1h26.33V135H868.59v87H979.77V85.25H815.92v146.3H671.09V117.44h90.7v65.1H721.56V169.37h26.33V134.26H685.72v87.05H796.9V84.52H633.05v147H487.49V117.44h90.7v65.1H538V169.37h26.33V134.26H502.12v87.05H613.3V84.52H449.45v147H308.27V117.44H399v65.1H358.75V169.37h26.33V134.26H322.9v87.05H434.09V84.52H270.24v147H245v-.18H124.67V118.17h90.71v65.1H175.14V170.1h26.34V135H139.3v87H250.49V85.25H86.63V242.52h11v-.18H113.7v.18H234V387.9H119.92V297.2H185v40.23H171.85V311.1H136.74v62.17h87V262.09H87V425.94H234V567.12H119.92V476.41H185v40.23H171.85V490.31H136.74v62.18h87V441.3H87V605.15H234V750.72H120.65V660h65.1v40.24H172.58V673.91H137.47v62.18h87.05V624.9H87.73V788.75H234V933.59H119.92V842.88H185v40.24H171.85V856.78H136.74V919h87V807.77H87V971.63H234v145.56H119.92v-90.7H185v40.23H171.85v-26.34H136.74v62.18h87V991.38H87v163.85H234V1296.4H119.92v-90.7H185v40.23H171.85V1219.6H136.74v62.17h87V1170.59H87v163.85H234V1480H120.65v-90.7h65.1v40.23H172.58V1403.2H137.47v62.18h87.05V1354.19H87.73V1518H234v144.1H119.92v-90.7H185v40.23H171.85v-26.33H136.74v62.17h87V1536.33H87v163.85H234v145.57H119.92V1755H185v40.23H171.85v-26.33H136.74v62.18h87V1719.93H87v163.85H234V2025H119.92v-90.71H185v40.24H171.85v-26.34H136.74v62.18h87V1899.14H87V2063H234v145.56H120.65v-90.7h65.1v40.23H172.58v-26.34H137.47v62.18h87.05V2082.75H87.73V2246.6H234v144.83H119.92v-90.7H185V2341H171.85v-26.33H136.74v62.17h87V2265.62H87v163.85H234V2575H119.92v-90.7H185v40.23H171.85v-26.33H136.74v62.17h87V2449.22H87v163.85H234v141.18H119.92v-90.71H185v40.23H171.85v-26.33H136.74v62.18h87V2628.43H87v159.09H233.78V2902h-90.7v-65.1h40.23V2850H157v35.11h62.17v-87H108v136.78H271.82v-147H417.38V2902h-90.7v-65.1h40.23V2850H340.58v35.11h62.17v-87H291.57v136.78H455.42v-147H596.6V2902H505.89v-65.1h40.24V2850H519.79v35.11H582v-87H470.78v136.78H634.63v-147H780.2v113.38H689.5v-65.11h40.23v13.17H703.39v35.11h62.18v-87H654.38v136.78H818.24V2787.86H963.07V2902h-90.7v-65.1H912.6V2850H886.26v35.11h62.18v-87H837.25v136.78h163.86v-147h145.56V2902H1056v-65.1h40.23V2850h-26.33v35.11H1132v-87H1020.86v136.78h163.85v-147h141.17V2902h-90.7v-65.1h40.23V2850h-26.33v35.11h62.17v-87H1200.07v136.78h163.85v-147h145.57v113.38h-90.71v-65.11H1459v13.17h-26.33v35.11h62.18v-87H1383.67v136.78h163.85V2787.86h144.11V2902h-90.71v-65.1h40.23V2850h-26.33v35.11H1677v-87H1565.81v136.78h163.85v-147h145.57V2902h-90.71v-65.1h40.23V2850h-26.33v35.11h62.18v-87H1749.41v136.78h163.85v-147h141.18V2902h-90.7v-65.1H2004V2850h-26.34v35.11h62.18v-87H1928.63v136.78h163.85v-147H2238v113.38h-90.7v-65.11h40.23v13.17h-26.33v35.11h62.17v-87H2112.23v136.78h163.85V2787.86h144.83V2902h-90.7v-65.1h40.23V2850h-26.33v35.11h62.17v-87H2295.1v136.78H2459v-147h145.56V2902h-90.7v-65.1H2554V2850h-26.33v35.11h62.17v-87H2478.7v136.78h163.85v-147h141.18V2902H2693v-65.1h40.23V2850h-26.33v35.11h62.18v-87H2657.91v136.78h163.85v-147h145.57v113.38h-90.7v-65.11h40.23v13.17h-26.34v35.11h62.18v-87H2841.51v136.78h163.86V2787.86h141.41V2902h-90.7v-65.1h40.23V2850H3070v35.11h62.17v-87H3021v136.78h163.85v-147h145.56V2902h-90.7v-65.1h40.23V2850h-26.33v35.11h62.17v-87H3204.57v136.78h163.85v-147H3509.6V2902h-90.71v-65.1h40.24V2850h-26.34v35.11H3495v-87H3383.78v136.78h163.85v-147H3693.2v113.38h-90.7v-65.11h40.23v13.17h-26.34v35.11h62.18v-87H3567.38v136.78h163.86V2787.86h144.83V2902h-90.7v-65.1h40.23V2850h-26.34v35.11h62.18v-87H3750.25v136.78h163.86v-147h145.56V2902H3969v-65.1h40.23V2850h-26.33v35.11H4045v-87H3933.86v136.78h163.85v-147h141.17V2902h-90.7v-65.1h40.23V2850h-26.33v35.11h62.17v-87H4113.07v136.78h163.85v-147h145.57v113.38h-90.71v-65.11H4372v13.17h-26.33v35.11h62.18v-87H4296.67v136.78h163.85V2787.86h144.11V2902h-90.71v-65.1h40.23V2850h-26.33v35.11H4590v-87H4478.81v136.78h163.85v-147h145.57V2902h-90.71v-65.1h40.23V2850h-26.33v35.11h62.18v-87H4662.41v136.78h163.85v-147h141.18V2902h-90.7v-65.1H4917V2850h-26.34v35.11h62.18v-87H4841.63v136.78h163.85v-147H5151v113.38h-90.7v-65.11h40.23v13.17h-26.33v35.11h62.17v-87H5025.23v136.78h163.85V2787.86h144.83V2902h-90.7v-65.1h40.23V2850h-26.33v35.11h62.17v-87H5208.1v136.78H5372v-147h145.56V2902h-90.7v-65.1H5467V2850h-26.33v35.11h62.17v-87H5391.7v136.78h163.85v-147h141.18V2902H5606v-65.1h40.23V2850h-26.33v35.11h62.18v-87H5570.91v136.78h163.85v-147H5760v.18h120.33v113.2h-90.7v-65.11h40.23v13.17h-26.34v35.11h62.18v-87H5754.51v136.78h163.86V2776.88h-11ZM121,107.19H113.7V231.37H97.61V96.22h141.9V211.06H150.27V146H190.5v13.17H164.17v35.11h62.18V107.19H121ZM5760,2621.92h-1v155h-35.21v147H5581.88V2809.07h89.25v65.1h-40.24V2861h26.34v-35.11h-62.18v87.05H5707.7V2776.88H5544.58v147H5402.67V2809.07h89.24v65.1h-40.23V2861H5478v-35.11h-62.17v87.05h112.65V2776.88H5361v147H5219.07V2809.07h89.24v65.1h-40.23V2861h26.33v-35.11h-62.17v87.05h112.64V2776.88H5178.11v146.3H5036.2V2808.34h89.24v65.1h-40.23v-13.17h26.33v-35.11h-62.17v87.05H5162V2776.88H4994.5v147H4852.6V2809.07h89.24v65.1h-40.23V2861h26.33v-35.11h-62.18v87.05h112.65V2776.88H4815.29v147H4673.38V2809.07h89.25v65.1h-40.24V2861h26.34v-35.11h-62.18v87.05H4799.2V2776.88H4631.69v147H4489.78V2809.07H4579v65.1h-40.23V2861h26.34v-35.11H4503v87.05H4615.6V2776.88H4449.55v146.3H4307.64V2808.34h89.24v65.1h-40.23v-13.17H4383v-35.11h-62.18v87.05h112.65V2776.88H4266v147H4124V2809.07h89.24v65.1h-40.23V2861h26.33v-35.11h-62.17v87.05h112.65V2776.88H4086.74v147H3944.83V2809.07h89.24v65.1h-40.23V2861h26.33v-35.11H3958v87.05h112.64V2776.88H3903.13v147h-141.9V2809.07h89.24v65.1h-40.23V2861h26.33v-35.11h-62.18v87.05H3887V2776.88H3720.26v146.3h-141.9V2808.34h89.24v65.1h-40.23v-13.17h26.33v-35.11h-62.18v87.05h112.65V2776.88H3536.66v147H3394.75V2809.07H3484v65.1h-40.24V2861h26.34v-35.11h-62.18v87.05h112.65V2776.88H3357.45v147H3215.54V2809.07h89.24v65.1h-40.23V2861h26.33v-35.11h-62.17v87.05h112.65V2776.88H3173.85v147H3031.94V2809.07h89.24v65.1H3081V2861h26.33v-35.11h-62.17v87.05h112.64V2776.88H2994.39v146.3h-141.9V2808.34h89.24v65.1H2901.5v-13.17h26.33v-35.11h-62.18v87.05H2978.3V2776.88H2810.79v147H2668.88V2809.07h89.25v65.1h-40.24V2861h26.34v-35.11h-62.18v87.05H2794.7V2776.88H2631.58v147H2489.67V2809.07h89.24v65.1h-40.23V2861H2565v-35.11h-62.17v87.05h112.65V2776.88H2448v147H2306.07V2809.07h89.24v65.1h-40.23V2861h26.33v-35.11h-62.17v87.05h112.64V2776.88H2265.11v146.3H2123.2V2808.34h89.24v65.1h-40.23v-13.17h26.33v-35.11h-62.17v87.05H2249V2776.88H2081.5v147H1939.6V2809.07h89.24v65.1h-40.23V2861h26.33v-35.11h-62.18v87.05h112.65V2776.88H1902.29v147H1760.38V2809.07h89.25v65.1h-40.24V2861h26.34v-35.11h-62.18v87.05H1886.2V2776.88H1718.69v147H1576.78V2809.07H1666v65.1h-40.23V2861h26.34v-35.11H1590v87.05H1702.6V2776.88h-166v146.3H1394.64V2808.34h89.24v65.1h-40.23v-13.17H1470v-35.11h-62.18v87.05h112.65V2776.88H1353v147H1211V2809.07h89.24v65.1h-40.23V2861h26.33v-35.11h-62.17v87.05h112.65V2776.88H1173.74v147H1031.83V2809.07h89.24v65.1h-40.23V2861h26.33v-35.11H1045v87.05h112.64V2776.88H990.13v147H848.23V2809.07h89.24v65.1H897.24V2861h26.33v-35.11H861.39v87.05H974V2776.88H807.26v146.3H665.36V2808.34H754.6v65.1H714.37v-13.17H740.7v-35.11H678.52v87.05H791.17V2776.88H623.66v147H481.75V2809.07H571v65.1H530.76V2861H557.1v-35.11H494.92v87.05H607.57V2776.88H444.45v147H302.54V2809.07h89.24v65.1H351.55V2861h26.33v-35.11H315.71v87.05H428.36V2776.88H260.85v147H118.94V2809.07h89.24v65.1H168V2861h26.33v-35.11H132.11v87.05H244.75V2776.88H98V2639.4H212.81v89.24h-65.1v-40.23h13.17v26.34H196v-62.18H108.94v112.65H245V2602.1H98V2460.19H212.81v89.24h-65.1V2509.2h13.17v26.33H196v-62.17H108.94V2586H245V2418.5H98V2276.59H212.81v89.24h-65.1V2325.6h13.17v26.33H196v-62.18H108.94V2402.4H245V2235.63H98.7V2093.72H213.55V2183H148.44v-40.23h13.17v26.33h35.11v-62.18h-87v112.65H245V2052H98v-141.9H212.81v89.24h-65.1v-40.23h13.17v26.33H196v-62.18H108.94v112.65H245V1872.81H98V1730.9H212.81v89.24h-65.1v-40.23h13.17v26.34H196v-62.18H108.94v112.65H245V1689.21H98V1547.3H212.81v89.24h-65.1v-40.23h13.17v26.33H196v-62.17H108.94v112.65H245v-166H98.7V1365.16H213.55v89.24H148.44v-40.23h13.17v26.33h35.11v-62.17h-87V1491H245V1323.47H98V1181.56H212.81v89.24h-65.1v-40.23h13.17v26.33H196v-62.17H108.94v112.65H245V1144.25H98v-141.9H212.81v89.24h-65.1v-40.23h13.17v26.33H196v-62.18H108.94v112.65H245V960.65H98V818.75H212.81V908h-65.1V867.75h13.17v26.34H196V831.91H108.94V944.56H245V777.78H98.7V635.88H213.55v89.24H148.44V684.88h13.17v26.34h35.11V649h-87V761.69H245V594.18H98V452.27H212.81v89.24h-65.1V501.28h13.17v26.34H196V465.44H108.94V578.09H245V415H98V273.06H212.81V362.3h-65.1V322.07h13.17V348.4H196V286.23H108.94V398.88H245V242.52h36.21v-147H423.12V210.33H333.88v-65.1h40.23V158.4H347.77v35.11H410v-87H297.3V242.52H460.42v-147H602.33V210.33H513.09v-65.1h40.23V158.4H527v35.11h62.17v-87H476.51V242.52H644v-147H785.93V210.33H696.69v-65.1h40.23V158.4H710.59v35.11h62.17v-87H660.12V242.52H826.89V96.22H968.8V211.06H879.56V146h40.23v13.17H893.46v35.11h62.17V107.19H843V242.52H1010.5v-147h141.9V210.33h-89.24v-65.1h40.23V158.4h-26.33v35.11h62.18v-87H1026.59V242.52h163.12v-147h141.91V210.33h-89.24v-65.1h40.23V158.4h-26.34v35.11h62.18v-87H1205.8V242.52h167.51v-147h141.91V210.33H1426v-65.1h40.23V158.4h-26.33v35.11h62.17v-87H1389.4V242.52h166V96.22h141.91V211.06h-89.24V146h40.23v13.17H1622v35.11h62.18V107.19H1571.54V242.52h167.51v-147H1881V210.33h-89.24v-65.1H1832V158.4h-26.33v35.11h62.17v-87H1755.14V242.52h163.12v-147h141.91V210.33h-89.24v-65.1h40.23V158.4h-26.33v35.11H2047v-87H1934.36V242.52h167.51v-147h141.9V210.33h-89.24v-65.1h40.23V158.4h-26.33v35.11h62.18v-87H2118V242.52h166.78V96.22h141.9V211.06H2337.4V146h40.23v13.17H2351.3v35.11h62.18V107.19H2300.83V242.52h167.51v-147h141.91V210.33H2521v-65.1h40.24V158.4H2534.9v35.11h62.18v-87H2484.43V242.52h163.12v-147h141.91V210.33h-89.24v-65.1h40.23V158.4h-26.33v35.11h62.17v-87H2663.64V242.52h167.51v-147h141.91V210.33h-89.24v-65.1h40.23V158.4h-26.33v35.11h62.17v-87H2847.25V242.52h163.36V96.22h141.9V211.06h-89.24V146h40.23v13.17h-26.33v35.11h62.18V107.19H3026.7V242.52h167.51v-147h141.91V210.33h-89.24v-65.1h40.23V158.4h-26.34v35.11H3323v-87H3210.3V242.52h163.12v-147h141.91V210.33h-89.24v-65.1h40.23V158.4H3440v35.11h62.17v-87H3389.51V242.52H3557v-147h141.91V210.33h-89.24v-65.1h40.23V158.4h-26.33v35.11h62.17v-87H3573.12V242.52h166.77V96.22H3881.8V211.06h-89.24V146h40.23v13.17h-26.33v35.11h62.17V107.19H3756V242.52H3923.5v-147h141.9V210.33h-89.24v-65.1h40.23V158.4h-26.33v35.11h62.18v-87H3939.59V242.52h163.12v-147h141.91V210.33h-89.24v-65.1h40.23V158.4h-26.34v35.11h62.18v-87H4118.8V242.52h167.51v-147h141.91V210.33H4339v-65.1h40.23V158.4h-26.33v35.11h62.17v-87H4302.4V242.52h166.05V96.22h141.91V211.06h-89.24V146h40.23v13.17H4535v35.11h62.18V107.19H4484.54V242.52h167.51v-147H4794V210.33h-89.24v-65.1H4745V158.4h-26.33v35.11h62.17v-87H4668.14V242.52h163.12v-147h141.91V210.33h-89.24v-65.1h40.23V158.4h-26.33v35.11H4960v-87H4847.36V242.52h167.51v-147h141.9V210.33h-89.24v-65.1h40.23V158.4h-26.33v35.11h62.18v-87H5031V242.52h166.78V96.22h141.9V211.06H5250.4V146h40.23v13.17H5264.3v35.11h62.18V107.19H5213.83V242.52h167.51v-147h141.91V210.33H5434v-65.1h40.24V158.4H5447.9v35.11h62.18v-87H5397.43V242.52h163.12v-147h141.91V210.33h-89.24v-65.1h40.23V158.4h-26.33v35.11h62.17v-87H5576.64V242.52h167.51v-147h141.91V210.33h-89.24v-65.1h40.23V158.4h-26.33v35.11h62.17v-87H5760.25V231.12H5760v11h.25v.43h11v-.43H5907V384H5792.19V294.76h65.1V335h-13.17V308.66H5809v62.17h87.05V258.19H5760V421.31h147v141.9H5792.19V474h65.1V514.2h-13.17V487.87H5809v62.18h87.05V437.4H5760V604.91h147v141.9H5792.19V657.57h65.1v40.24h-13.17V671.47H5809v62.18h87.05V621H5760V784.12h11v-.34H5906.3V925.69H5791.45V836.44h65.11v40.24h-13.17V850.34h-35.11v62.18h87V799.87H5760V967.38h147v141.91H5792.19v-89.24h65.1v40.23h-13.17v-26.34H5809v62.18h87.05V983.47H5760v163.12h147V1288.5H5792.19v-89.24h65.1v40.23h-13.17v-26.33H5809v62.17h87.05V1162.69H5760v167.5h147V1472.1H5792.19v-89.24h65.1v40.23h-13.17v-26.33H5809v62.18h87.05V1346.29H5760v166h146.3v141.91H5791.45V1565h65.11v40.23h-13.17V1578.9h-35.11v62.17h87V1528.43H5760v167.51h147v141.9H5792.19V1748.6h65.1v40.23h-13.17V1762.5H5809v62.18h87.05V1712H5760v163.12h147v141.91H5792.19v-89.25h65.1v40.24h-13.17v-26.34H5809v62.18h87.05V1891.24H5760v167.51h147v141.91H5792.19v-89.24h65.1v40.23h-13.17v-26.34H5809v62.18h87.05V2074.84H5760v166.78h146.3v139.91H5790.45v-87.24h66.11v40.23h-13.17v-26.33h-35.11v62.17h87V2257.71H5760v1.39h-1v158.73h1v7.39h147v141.91H5791.19v-89.24h66.1v40.23h-13.17v-26.33H5809V2554h87.05V2441.31H5760v1.39h-1v158.74h1.73v3H5907v141.9H5791.19V2657.1h66.1v40.23h-13.17V2671H5809v62.18h87.05V2620.53H5760Zm147.39,301.26h-141.9V2808.34h89.24v65.1H5814.5v-13.17h26.33v-35.11h-62.18v87.05H5891.3V2788h16.09Z"/><path class="cls-1" d="M5678.52,317.52H5676V315H309v2.52h-2.52V2708.61H309V2711H5676v-2.39h2.52ZM321.48,2696V330h5342V2696Z"/><path class="cls-1" d="M5990.52,3.2h-2.81V0H2.81V3.2H0V3039.48H2.81v3h5984.9v-3h2.81ZM16.73,3023.47V19.05H5973.79V3023.47Z"/></g></g></svg>